<svg width="20" height="20" viewBox="0 0 20 20" fill="none" xmlns="http://www.w3.org/2000/svg">
<g clip-path="url(#clip0_367_78655)">
<path d="M2.63165 2.5346C2.68441 2.53461 2.73718 2.53461 2.78994 2.53458C2.93253 2.53457 3.07512 2.5348 3.21771 2.53508C3.36697 2.53532 3.51623 2.53534 3.66548 2.53539C3.94783 2.53551 4.23018 2.53583 4.51253 2.53622C4.8341 2.53666 5.15567 2.53687 5.47724 2.53707C6.13847 2.53748 6.79969 2.53819 7.46091 2.53904C7.46091 2.95154 7.46091 3.36404 7.46091 3.78904C7.29802 3.78961 7.13513 3.79018 6.96731 3.79076C6.43034 3.79272 5.89337 3.79532 5.35641 3.79824C5.03071 3.8 4.70501 3.80154 4.3793 3.80257C4.0955 3.80346 3.8117 3.80477 3.52789 3.80656C3.37755 3.8075 3.22721 3.80823 3.07687 3.80847C2.93547 3.80871 2.79409 3.80949 2.65269 3.81069C2.57583 3.8112 2.49897 3.81113 2.4221 3.81104C2.37664 3.81153 2.33117 3.81202 2.28433 3.81252C2.24465 3.8127 2.20497 3.81288 2.16409 3.81307C2.11766 3.82051 2.11766 3.82051 2.07029 3.8281C1.96734 3.98252 1.98089 4.11527 1.98128 4.29453C1.98106 4.33059 1.98083 4.36665 1.9806 4.40381C1.97993 4.52554 1.97982 4.64726 1.97971 4.76898C1.97934 4.85739 1.97894 4.94579 1.9785 5.0342C1.97744 5.27148 1.97684 5.50877 1.97633 5.74606C1.97579 5.96851 1.97483 6.19097 1.9739 6.41342C1.97143 7.0645 1.96963 7.71559 1.96775 8.36667C1.96291 9.8209 1.95808 11.2751 1.9531 12.7734C7.26404 12.7734 12.575 12.7734 18.0468 12.7734C18.042 11.3192 18.0372 9.86496 18.0322 8.36667C18.0309 7.90685 18.0295 7.44703 18.0282 6.97327C18.0266 6.56246 18.0266 6.56246 18.025 6.15165C18.0242 5.96812 18.0237 5.7846 18.0233 5.60108C18.0228 5.36732 18.0219 5.13356 18.0208 4.89981C18.0204 4.81381 18.0202 4.72781 18.0201 4.64181C18.02 4.52604 18.0194 4.41029 18.0187 4.29453C18.0187 4.26053 18.0188 4.22653 18.0189 4.1915C18.0172 3.99831 18.0172 3.99831 17.9297 3.8281C17.7607 3.79965 17.5933 3.79744 17.4218 3.78904C17.409 3.50544 17.3961 3.22185 17.3828 2.92966C17.192 2.85889 17.192 2.85889 17.0006 2.78947C16.9288 2.76181 16.9288 2.76181 16.7968 2.69529C16.7691 2.613 16.7691 2.613 16.7578 2.53904C16.912 2.53708 17.0661 2.53568 17.2203 2.53474C17.2981 2.53417 17.3758 2.53317 17.4536 2.53217C17.9676 2.52957 18.3439 2.60378 18.7793 2.88083C19.0723 3.17389 19.2623 3.55398 19.2629 3.9712C19.2631 4.00686 19.2632 4.04253 19.2634 4.07927C19.2633 4.1181 19.2633 4.15694 19.2633 4.19695C19.2634 4.25923 19.2634 4.25923 19.2636 4.32278C19.264 4.46216 19.264 4.60153 19.2641 4.74091C19.2643 4.84075 19.2645 4.94059 19.2647 5.04043C19.2652 5.31185 19.2654 5.58328 19.2656 5.85471C19.2657 6.02428 19.2659 6.19386 19.2661 6.36343C19.2665 6.8332 19.2669 7.30298 19.2671 7.77275C19.2671 7.8028 19.2671 7.83286 19.2671 7.86382C19.2671 7.89394 19.2671 7.92407 19.2671 7.9551C19.2671 8.01614 19.2672 8.07718 19.2672 8.13822C19.2672 8.1685 19.2672 8.19877 19.2672 8.22997C19.2674 8.72037 19.268 9.21076 19.2689 9.70116C19.2699 10.205 19.2704 10.7088 19.2704 11.2127C19.2704 11.4954 19.2707 11.7781 19.2714 12.0609C19.272 12.3269 19.2721 12.5929 19.2718 12.8589C19.2717 12.9565 19.2719 13.054 19.2723 13.1515C19.2728 13.2849 19.2725 13.4183 19.2721 13.5516C19.2726 13.6092 19.2726 13.6092 19.2731 13.668C19.2699 14.1137 19.1401 14.4769 18.8339 14.8037C18.5609 15.0593 18.2458 15.2003 17.8714 15.2C17.8278 15.2 17.7842 15.2001 17.7392 15.2001C17.6916 15.2 17.6439 15.1999 17.5948 15.1997C17.5194 15.1997 17.5194 15.1997 17.4424 15.1997C17.3045 15.1997 17.1667 15.1995 17.0289 15.1992C16.8848 15.199 16.7407 15.199 16.5966 15.1989C16.3238 15.1988 16.051 15.1985 15.7782 15.1981C15.4675 15.1977 15.1569 15.1974 14.8463 15.1973C14.2074 15.1968 13.5686 15.1961 12.9297 15.1953C12.9297 15.9301 12.9297 16.6648 12.9297 17.4218C13.0971 17.4205 13.2646 17.4191 13.4372 17.4177C13.5717 17.417 13.7061 17.4163 13.8406 17.4158C13.9821 17.4152 14.1235 17.4143 14.265 17.413C14.4015 17.4117 14.538 17.411 14.6745 17.4107C14.7513 17.4104 14.8281 17.4095 14.9049 17.4086C15.286 17.4085 15.6341 17.4458 15.9375 17.6953C16.4513 18.2124 16.289 18.484 16.289 19.375C12.1383 19.375 7.98747 19.375 3.71091 19.375C3.71091 18.102 3.71091 18.102 3.92988 17.8058C4.17331 17.5629 4.45561 17.4314 4.80142 17.4172C4.86427 17.4173 4.86427 17.4173 4.92838 17.4174C4.97607 17.4174 5.02376 17.4174 5.0729 17.4174C5.12401 17.4176 5.17513 17.4178 5.22779 17.418C5.28093 17.4181 5.33408 17.4182 5.38722 17.4182C5.52664 17.4184 5.66605 17.4187 5.80547 17.4192C5.94791 17.4196 6.09036 17.4197 6.23281 17.4199C6.51197 17.4203 6.79113 17.4211 7.07029 17.4218C7.07029 16.6871 7.07029 15.9523 7.07029 15.1953C6.51944 15.198 6.51944 15.198 5.95746 15.2008C5.72444 15.2016 5.49141 15.2023 5.25838 15.2029C4.88873 15.2038 4.51909 15.2049 4.14944 15.2071C3.88018 15.2086 3.61093 15.2096 3.34167 15.21C3.19923 15.2102 3.05681 15.2107 2.91438 15.2118C2.75497 15.2131 2.59557 15.2131 2.43614 15.213C2.38947 15.2136 2.3428 15.2141 2.29472 15.2147C1.81714 15.2124 1.44961 15.0728 1.10608 14.7412C0.862715 14.479 0.737734 14.1598 0.736919 13.8025C0.736744 13.7669 0.73657 13.7313 0.736391 13.6947C0.736398 13.6559 0.736405 13.6172 0.736413 13.5772C0.736269 13.5358 0.736125 13.4943 0.735977 13.4516C0.735547 13.3125 0.735396 13.1734 0.735247 13.0343C0.735003 12.9347 0.734743 12.835 0.73447 12.7354C0.733719 12.4362 0.733305 12.137 0.732957 11.8377C0.732785 11.6967 0.732576 11.5556 0.732371 11.4145C0.731707 10.9452 0.731141 10.476 0.730858 10.0067C0.730783 9.885 0.730708 9.7633 0.730632 9.6416C0.730603 9.59623 0.730603 9.59623 0.730574 9.54995C0.73025 9.06038 0.729261 8.57083 0.727992 8.08127C0.726698 7.57809 0.725996 7.07492 0.725872 6.57175C0.725787 6.28946 0.725448 6.00717 0.724447 5.72489C0.723507 5.45915 0.723373 5.19343 0.723774 4.9277C0.723793 4.8304 0.723547 4.7331 0.72301 4.63581C0.716804 3.44484 0.716804 3.44484 1.09433 3.00519C1.54148 2.56949 2.03734 2.5329 2.63165 2.5346Z" fill="black"/>
<path d="M13.2422 0.624989C13.3335 0.611686 13.3335 0.611686 13.4464 0.613545C13.5068 0.614112 13.5068 0.614112 13.5684 0.61469C13.6106 0.615672 13.6528 0.616654 13.6963 0.617665C13.7388 0.618194 13.7813 0.618723 13.8251 0.619267C13.9303 0.620652 14.0354 0.622581 14.1406 0.624989C14.1479 0.656108 14.1552 0.687227 14.1628 0.719289C14.2338 0.95886 14.2338 0.95886 14.3995 1.13768C14.5666 1.22152 14.7434 1.27419 14.9219 1.32811C14.9547 1.34483 14.9874 1.36155 15.0212 1.37877C15.1641 1.41966 15.2489 1.3705 15.3833 1.31347C15.4287 1.29463 15.474 1.2758 15.5208 1.2564C15.5552 1.24139 15.5896 1.22639 15.625 1.21093C15.7246 1.30257 15.8226 1.39573 15.9204 1.48925C15.9628 1.52822 15.9628 1.52822 16.0061 1.56798C16.2103 1.76542 16.2103 1.76542 16.2135 1.9258C16.1719 2.03124 16.1719 2.03124 16.1084 2.15087C16.0441 2.28813 16.0567 2.31749 16.0938 2.46093C16.106 2.50962 16.1183 2.55831 16.131 2.60848C16.223 2.94128 16.223 2.94128 16.4566 3.17885C16.6105 3.2515 16.6105 3.2515 16.8359 3.3203C16.8359 3.61679 16.8359 3.91327 16.8359 4.21874C16.4453 4.37499 16.4453 4.37499 16.3281 4.37499C16.3215 4.40238 16.3148 4.42977 16.308 4.458C16.2613 4.64073 16.2154 4.80792 16.123 4.97313C16.0667 5.07917 16.0546 5.11416 16.0571 5.23925C16.0915 5.35562 16.0915 5.35562 16.1572 5.47118C16.2216 5.60862 16.2219 5.63995 16.1719 5.78124C16.0994 5.87921 16.0164 5.96389 15.9302 6.04979C15.8971 6.08529 15.8971 6.08529 15.8633 6.12151C15.7995 6.18583 15.7407 6.2407 15.6641 6.28905C15.5122 6.28831 15.4292 6.24977 15.2905 6.18651C15.1109 6.11466 15.0227 6.14754 14.8462 6.21703C14.8067 6.23435 14.7672 6.25167 14.7266 6.26952C14.583 6.33253 14.4519 6.38116 14.2969 6.40624C14.2928 6.43927 14.2888 6.4723 14.2847 6.50634C14.2578 6.64061 14.2578 6.64061 14.1406 6.91405C13.8441 6.91405 13.5477 6.91405 13.2422 6.91405C13.2148 6.83429 13.1874 6.75453 13.1592 6.67235C13.0826 6.50255 13.0387 6.42353 12.8746 6.33178C12.7377 6.28534 12.6006 6.24788 12.4609 6.21093C12.4223 6.18515 12.3836 6.15936 12.3438 6.1328C12.2006 6.14256 12.0993 6.17638 11.9678 6.23534C11.8084 6.30028 11.8084 6.30028 11.6797 6.24999C11.6117 6.19535 11.6117 6.19535 11.5448 6.12655C11.5206 6.102 11.4965 6.07745 11.4716 6.05216C11.4344 6.01353 11.4344 6.01353 11.3965 5.97411C11.3711 5.9482 11.3457 5.9223 11.3196 5.8956C11.2571 5.8317 11.1948 5.76753 11.1328 5.70311C11.158 5.65274 11.158 5.65274 11.1838 5.60134C11.3128 5.31717 11.3128 5.31717 11.2917 5.0151C11.231 4.88902 11.1633 4.76974 11.0938 4.64843C11.0834 4.60724 11.0731 4.56605 11.0625 4.52361C11.0241 4.40287 11.0241 4.40287 10.8969 4.34844C10.8507 4.33303 10.8045 4.31762 10.7568 4.30175C10.6336 4.26066 10.6336 4.26066 10.5078 4.21874C10.5078 3.92226 10.5078 3.62577 10.5078 3.3203C10.9668 3.12499 10.9668 3.12499 11.0547 3.12499C11.0635 3.07504 11.0724 3.02509 11.0815 2.97362C11.1136 2.82299 11.1654 2.70511 11.2402 2.57079C11.3193 2.42451 11.3193 2.42451 11.3086 2.26073C11.2893 2.22367 11.2699 2.18661 11.25 2.14843C11.2113 2.0453 11.1727 1.94218 11.1328 1.83593C11.3391 1.62968 11.5453 1.42343 11.7578 1.21093C11.8735 1.26433 11.9892 1.31774 12.1049 1.37114C12.2511 1.41332 12.2896 1.39704 12.4219 1.32811C12.508 1.29369 12.5943 1.25952 12.6807 1.22558C12.7467 1.19944 12.7467 1.19944 12.814 1.17278C12.9297 1.1328 12.9297 1.1328 13.0469 1.1328C13.0544 1.10596 13.062 1.07912 13.0698 1.05147C13.0799 1.01628 13.0901 0.981078 13.1006 0.944814C13.1155 0.892471 13.1155 0.892471 13.1308 0.83907C13.1641 0.742177 13.1641 0.742177 13.2422 0.624989ZM12.4976 2.90038C12.2514 3.2497 12.1928 3.60264 12.2266 4.02343C12.3193 4.43271 12.5501 4.75808 12.8906 4.99999C13.2524 5.2213 13.6242 5.28878 14.0381 5.19042C14.4016 5.08218 14.7119 4.89134 14.9219 4.5703C15.1318 4.15091 15.223 3.76035 15.0879 3.29818C14.9097 2.87121 14.6094 2.55253 14.1841 2.37349C13.5265 2.13647 12.9429 2.41453 12.4976 2.90038Z" fill="black"/>
<path d="M9.38568 0.971716C9.53383 1.06869 9.64745 1.20961 9.72626 1.36722C9.72995 1.45532 9.73102 1.54352 9.73095 1.63169C9.73099 1.65919 9.73102 1.68669 9.73106 1.71503C9.73112 1.80764 9.73091 1.90025 9.73069 1.99285C9.73068 2.05906 9.73069 2.12526 9.73071 2.19147C9.73072 2.3716 9.73049 2.55173 9.73022 2.73186C9.72997 2.91996 9.72995 3.10805 9.7299 3.29615C9.72978 3.65252 9.72946 4.00889 9.72907 4.36526C9.72863 4.7709 9.72842 5.17654 9.72822 5.58218C9.72781 6.41678 9.7271 7.25138 9.72626 8.08597C9.17196 8.08597 8.61766 8.08597 8.04657 8.08597C8.04304 7.21977 8.04016 6.35358 8.03847 5.48737C8.03767 5.08517 8.03657 4.68298 8.03478 4.28078C8.03322 3.93021 8.03222 3.57964 8.03187 3.22907C8.03167 3.04346 8.03119 2.85786 8.03005 2.67225C8.02899 2.49748 8.02866 2.32272 8.0289 2.14794C8.02885 2.08387 8.02854 2.0198 8.02794 1.95573C8.02716 1.86805 8.02735 1.78043 8.02778 1.69276C8.02764 1.64375 8.02749 1.59474 8.02734 1.54425C8.05652 1.33487 8.1428 1.19129 8.29559 1.04252C8.60421 0.844122 9.04937 0.823509 9.38568 0.971716Z" fill="black"/>
<path d="M3.50852 11.0492C3.53576 11.0491 3.563 11.049 3.59106 11.0489C3.68255 11.0485 3.77404 11.0485 3.86553 11.0484C3.93104 11.0482 3.99655 11.048 4.06206 11.0478C4.24018 11.0473 4.41831 11.047 4.59643 11.0469C4.70767 11.0468 4.81892 11.0466 4.93017 11.0464C5.27812 11.0459 5.62608 11.0455 5.97403 11.0454C6.3759 11.0452 6.77777 11.0445 7.17964 11.0434C7.49015 11.0425 7.80066 11.0421 8.11118 11.0421C8.29669 11.042 8.48221 11.0418 8.66772 11.0411C8.84221 11.0405 9.01668 11.0404 9.19117 11.0407C9.25521 11.0408 9.31925 11.0406 9.38329 11.0402C9.47073 11.0397 9.55813 11.0399 9.64556 11.0403C9.69448 11.0403 9.74341 11.0402 9.79382 11.0402C9.9327 11.0559 10.0064 11.0882 10.1172 11.1719C10.1785 11.2945 10.17 11.3882 10.1562 11.5234C10.055 11.6546 9.99649 11.712 9.83188 11.7432C9.78248 11.7432 9.73308 11.7433 9.68218 11.7433C9.65456 11.7436 9.62693 11.7438 9.59847 11.7441C9.50612 11.7448 9.41383 11.7441 9.32149 11.7434C9.2552 11.7436 9.18891 11.7439 9.12261 11.7443C8.94271 11.745 8.76284 11.7445 8.58294 11.7437C8.39467 11.7431 8.2064 11.7434 8.01813 11.7436C7.70197 11.7438 7.38581 11.7432 7.06965 11.7421C6.70413 11.7408 6.33862 11.7408 5.9731 11.7415C5.62147 11.7421 5.26985 11.7419 4.91822 11.7412C4.76857 11.7409 4.61894 11.741 4.46929 11.7412C4.29307 11.7415 4.11687 11.7411 3.94065 11.74C3.87598 11.7397 3.81131 11.7397 3.74664 11.74C3.65834 11.7404 3.57011 11.7397 3.48182 11.7389C3.43242 11.7388 3.38302 11.7386 3.33212 11.7385C3.18046 11.7153 3.11523 11.67 3.00778 11.5625C2.96487 11.418 2.98854 11.2857 3.05905 11.1548C3.19187 11.0318 3.33659 11.0496 3.50852 11.0492Z" fill="black"/>
<path d="M15.234 8.55471C15.3369 8.62032 15.3369 8.62032 15.4342 8.70607C15.4711 8.7379 15.5079 8.76972 15.5459 8.80251C15.5651 8.81948 15.5843 8.83645 15.6041 8.85393C15.6848 8.9248 15.767 8.99377 15.8493 9.06281C15.9131 9.11656 15.9766 9.17078 16.04 9.22502C16.1304 9.30199 16.2222 9.37676 16.3153 9.45055C16.3386 9.46939 16.362 9.48823 16.386 9.50764C16.4307 9.54362 16.4757 9.57914 16.5212 9.6141C16.6225 9.6966 16.6762 9.75686 16.7202 9.88085C16.7171 10.085 16.6407 10.196 16.4965 10.3362C16.4553 10.3702 16.4136 10.4038 16.3717 10.437C16.326 10.4744 16.2804 10.5118 16.2347 10.5492C16.2113 10.5681 16.1879 10.587 16.1639 10.6065C16.0728 10.6809 15.9834 10.7572 15.8941 10.8337C15.7918 10.9211 15.6887 11.0074 15.5856 11.0938C15.552 11.1223 15.5184 11.1508 15.4838 11.1801C15.1973 11.4153 15.1973 11.4153 14.9996 11.4063C14.8618 11.3436 14.8111 11.2992 14.7262 11.1719C14.724 11.019 14.7226 10.9152 14.8168 10.7921C14.8863 10.7262 14.9583 10.6668 15.0338 10.6079C15.0601 10.5864 15.0863 10.5649 15.1133 10.5427C15.1666 10.4991 15.2201 10.4559 15.274 10.413C15.3452 10.3564 15.4156 10.2989 15.4856 10.2408C15.5835 10.1599 15.6819 10.0796 15.7809 10C15.7199 9.83677 15.5995 9.74556 15.4684 9.63869C15.4458 9.6199 15.4233 9.60112 15.4001 9.58176C15.2297 9.44047 15.056 9.30376 14.8796 9.17009C14.8004 9.09797 14.7627 9.04553 14.7262 8.94533C14.7291 8.78185 14.7415 8.69987 14.8483 8.57424C14.9973 8.49651 15.0719 8.51748 15.234 8.55471Z" fill="black"/>
<path d="M12.8517 8.55466C12.9469 8.61814 12.9469 8.61814 13.0079 8.71091C13.0354 8.87565 13.0266 8.9548 12.9371 9.09666C12.7529 9.29235 12.5314 9.45267 12.3213 9.61916C12.2611 9.66697 12.2012 9.71506 12.1412 9.76316C12.1052 9.79171 12.0692 9.82026 12.0321 9.84968C12.0061 9.8735 11.9801 9.89731 11.9532 9.92185C11.9532 9.94763 11.9532 9.97341 11.9532 9.99998C12.0113 10.0529 12.0722 10.1028 12.1339 10.1513C12.3177 10.2985 12.4991 10.4479 12.6783 10.6006C12.7021 10.6205 12.7258 10.6405 12.7502 10.6611C13.0011 10.8753 13.0011 10.8753 13.0226 11.0718C13.0079 11.2109 13.0079 11.2109 12.9445 11.3037C12.8271 11.384 12.7602 11.4062 12.6173 11.4062C12.3806 11.3088 12.2127 11.1359 12.0272 10.9628C11.92 10.8647 11.8101 10.7724 11.6969 10.6811C11.4757 10.5026 11.256 10.3184 11.0548 10.1172C11.0271 9.84062 11.0271 9.84062 11.128 9.70945C11.1683 9.67561 11.2091 9.64233 11.2501 9.60935C11.3104 9.55413 11.3706 9.49877 11.4308 9.44334C11.6386 9.2574 11.8537 9.08154 12.0704 8.90623C12.1849 8.81188 12.2993 8.7175 12.4136 8.62302C12.5713 8.49841 12.6554 8.51068 12.8517 8.55466Z" fill="black"/>
<path d="M3.52095 9.77627C3.57433 9.77594 3.57433 9.77594 3.6288 9.7756C3.74623 9.77517 3.86357 9.77642 3.98099 9.77773C4.06266 9.77787 4.14433 9.77793 4.226 9.7779C4.39706 9.77808 4.56808 9.77905 4.73913 9.78062C4.95846 9.78262 5.17775 9.78306 5.39709 9.78297C5.56568 9.78301 5.73427 9.78365 5.90286 9.7845C5.98374 9.78487 6.06462 9.7851 6.14549 9.78519C6.25846 9.78544 6.3714 9.78647 6.48436 9.78772C6.51782 9.78767 6.55129 9.78761 6.58577 9.78756C6.72396 9.7898 6.8123 9.79146 6.93451 9.85975C7.03581 9.96871 7.03399 10.0907 7.03137 10.2344C7.00207 10.3357 6.97859 10.3727 6.89345 10.433C6.74881 10.4867 6.60476 10.4803 6.45247 10.4802C6.4177 10.4804 6.38294 10.4807 6.34713 10.4809C6.23224 10.4817 6.11736 10.4818 6.00247 10.4819C5.92259 10.4822 5.84271 10.4824 5.76283 10.4827C5.59539 10.4832 5.42796 10.4833 5.26052 10.4833C5.04597 10.4833 4.83144 10.4843 4.6169 10.4857C4.45192 10.4866 4.28695 10.4867 4.12197 10.4867C4.04287 10.4868 3.96377 10.4871 3.88467 10.4877C3.77405 10.4885 3.66346 10.4883 3.55284 10.4878C3.52018 10.4882 3.48752 10.4887 3.45388 10.4891C3.29983 10.4874 3.22099 10.4796 3.08649 10.3977C2.97566 10.2776 2.96327 10.2015 2.96887 10.0391C3.11961 9.79157 3.24151 9.77076 3.52095 9.77627Z" fill="black"/>
<path d="M3.55271 5.9966C3.58754 5.99645 3.62237 5.9963 3.65826 5.99615C3.77313 5.99586 3.88797 5.9967 4.00284 5.99757C4.08276 5.99767 4.16268 5.9977 4.2426 5.99768C4.40997 5.9978 4.57732 5.99845 4.74469 5.9995C4.95929 6.00083 5.17386 6.00113 5.38846 6.00107C5.55343 6.00109 5.7184 6.00152 5.88338 6.00208C5.96251 6.00233 6.04164 6.00249 6.12078 6.00254C6.2313 6.00271 6.34182 6.0034 6.45234 6.00423C6.48508 6.0042 6.51781 6.00416 6.55154 6.00412C6.83091 6.00721 6.83091 6.00721 6.95312 6.0937C7.05323 6.21764 7.03312 6.33826 7.01874 6.48814C6.97968 6.59747 6.93796 6.62263 6.83594 6.67964C6.71884 6.69774 6.60254 6.69685 6.48423 6.69667C6.44871 6.69706 6.41319 6.69745 6.37659 6.69786C6.25916 6.69897 6.14175 6.6992 6.02432 6.69933C5.94269 6.6997 5.86106 6.7001 5.77942 6.70051C5.60831 6.70121 5.4372 6.70143 5.26608 6.70136C5.04679 6.70135 4.82755 6.70295 4.60827 6.70496C4.43967 6.70627 4.27109 6.7065 4.10249 6.70644C4.02164 6.70658 3.9408 6.7071 3.85995 6.708C3.74688 6.70915 3.6339 6.70882 3.52082 6.70811C3.48744 6.70877 3.45405 6.70943 3.41965 6.7101C3.19988 6.70661 3.19988 6.70661 3.09885 6.63054C2.99877 6.51837 2.96909 6.45501 2.96387 6.30367C3.06399 6.00329 3.27486 5.99287 3.55271 5.9966Z" fill="black"/>
<path d="M3.5756 7.25933C3.62659 7.25904 3.62659 7.25904 3.67861 7.25874C3.79117 7.25817 3.90373 7.25791 4.0163 7.25769C4.09448 7.25747 4.17267 7.25724 4.25085 7.25702C4.41484 7.2566 4.57883 7.25638 4.74282 7.25624C4.95295 7.25603 5.16307 7.25509 5.37319 7.25398C5.53471 7.25325 5.69623 7.25305 5.85776 7.25299C5.93522 7.25287 6.01269 7.25255 6.09015 7.25204C6.19853 7.25137 6.30688 7.25145 6.41526 7.2517C6.44725 7.25134 6.47924 7.25098 6.5122 7.25061C6.69053 7.25192 6.8103 7.26474 6.95361 7.38281C7.02723 7.54538 7.04546 7.61919 6.98291 7.78809C6.91455 7.89062 6.91455 7.89062 6.83643 7.92969C6.72186 7.93436 6.6082 7.93666 6.49359 7.93722C6.45808 7.93754 6.42257 7.93786 6.38598 7.93819C6.26813 7.93916 6.15029 7.93981 6.03244 7.94037C5.99225 7.94058 5.95205 7.94078 5.91064 7.941C5.69791 7.94204 5.48519 7.9428 5.27247 7.94336C5.05257 7.94401 4.83269 7.94576 4.6128 7.94775C4.44388 7.94907 4.27495 7.94952 4.10602 7.94974C4.02495 7.95 3.94389 7.9506 3.86283 7.95153C3.74938 7.95276 3.636 7.95277 3.52255 7.95248C3.48904 7.95312 3.45553 7.95376 3.42101 7.95442C3.25124 7.95265 3.18459 7.94518 3.04589 7.83793C2.96924 7.73437 2.96924 7.73437 2.94727 7.61719C2.97424 7.47335 3.02268 7.40749 3.12549 7.30469C3.27611 7.25448 3.41861 7.25954 3.5756 7.25933Z" fill="black"/>
<path d="M3.52053 8.53003C3.55612 8.52975 3.59171 8.52947 3.62838 8.52918C3.7458 8.52852 3.86316 8.52928 3.98057 8.53011C4.06224 8.53008 4.14391 8.52999 4.22558 8.52983C4.39663 8.52972 4.56767 8.53029 4.73871 8.53136C4.95804 8.5327 5.17734 8.53246 5.39667 8.53173C5.56526 8.53132 5.73385 8.53166 5.90244 8.53225C5.98332 8.53245 6.0642 8.53243 6.14508 8.53219C6.25805 8.53198 6.37097 8.53277 6.48394 8.53384C6.5174 8.53359 6.55087 8.53333 6.58535 8.53307C6.81169 8.53672 6.81169 8.53672 6.93361 8.62816C7.00251 8.72601 7.02512 8.78662 7.03095 8.90624C6.99439 9.0272 6.96438 9.09 6.8747 9.17968C6.71444 9.23205 6.55155 9.22481 6.38468 9.22504C6.33425 9.22533 6.33425 9.22533 6.28281 9.22563C6.17172 9.2262 6.06065 9.22646 5.94956 9.22668C5.87231 9.2269 5.79506 9.22713 5.7178 9.22735C5.55588 9.22776 5.39397 9.22799 5.23205 9.22813C5.02459 9.22834 4.81715 9.22928 4.6097 9.23039C4.45016 9.23112 4.29061 9.23132 4.13107 9.23138C4.05458 9.2315 3.9781 9.23181 3.90161 9.23233C3.79464 9.23299 3.6877 9.23292 3.58072 9.23267C3.53338 9.23321 3.53338 9.23321 3.48508 9.23376C3.30582 9.23243 3.18805 9.21466 3.04658 9.10156C2.95496 8.96412 2.9458 8.9118 2.96845 8.74999C3.12974 8.53105 3.26786 8.52657 3.52053 8.53003Z" fill="black"/>
<path d="M3.55554 4.74482C3.59068 4.74449 3.62583 4.74415 3.66204 4.7438C3.778 4.74292 3.89391 4.74318 4.00987 4.74354C4.09057 4.74333 4.17127 4.74309 4.25197 4.7428C4.42102 4.7424 4.59005 4.74257 4.75909 4.74314C4.97571 4.74382 5.19228 4.7429 5.40889 4.74152C5.57551 4.74067 5.74212 4.74072 5.90874 4.74105C5.9886 4.74108 6.06847 4.74081 6.14833 4.74023C6.25999 4.73955 6.37158 4.74012 6.48324 4.74101C6.53268 4.74032 6.53268 4.74032 6.58312 4.73962C6.75042 4.74233 6.81693 4.75123 6.95411 4.85616C7.03111 4.96097 7.03111 4.96097 7.05308 5.10013C7.02803 5.2532 6.99615 5.29791 6.87486 5.39066C6.74692 5.45463 6.60528 5.43583 6.46465 5.43602C6.4131 5.43631 6.4131 5.43631 6.3605 5.4366C6.24646 5.43718 6.13242 5.43744 6.01838 5.43766C5.93926 5.43788 5.86015 5.43811 5.78103 5.43833C5.61496 5.43874 5.4489 5.43897 5.28284 5.43911C5.07004 5.43932 4.85725 5.44026 4.64446 5.44137C4.48096 5.4421 4.31746 5.4423 4.15396 5.44236C4.07551 5.44248 3.99707 5.44279 3.91862 5.44331C3.80883 5.44397 3.69907 5.4439 3.58929 5.44365C3.55687 5.44401 3.52446 5.44437 3.49106 5.44474C3.31097 5.44343 3.19307 5.42941 3.04673 5.31254C2.98552 5.19011 2.9744 5.05349 3.00767 4.92191C3.17691 4.74172 3.32317 4.74303 3.55554 4.74482Z" fill="black"/>
<path d="M14.414 8.12504C14.5288 8.20561 14.5288 8.20561 14.6093 8.32035C14.6243 8.51993 14.5925 8.69541 14.5395 8.88646C14.532 8.91432 14.5246 8.94218 14.517 8.97088C14.4925 9.06221 14.4675 9.15339 14.4426 9.24458C14.4253 9.30843 14.4081 9.37228 14.3908 9.43614C14.3548 9.56967 14.3185 9.70313 14.282 9.83655C14.2353 10.0071 14.1892 10.1779 14.1433 10.3487C14.1078 10.4804 14.072 10.6122 14.0362 10.7439C14.0191 10.8068 14.0021 10.8697 13.9852 10.9327C13.9614 11.0208 13.9373 11.1088 13.9131 11.1968C13.9062 11.2226 13.8993 11.2483 13.8922 11.2748C13.7861 11.657 13.7861 11.657 13.6425 11.7749C13.5119 11.8076 13.4112 11.7886 13.2812 11.7579C13.1781 11.6926 13.1667 11.652 13.1389 11.5326C13.1244 11.4014 13.1361 11.3169 13.17 11.1902C13.1808 11.1486 13.1917 11.1071 13.2029 11.0643C13.215 11.0198 13.2272 10.9752 13.2397 10.9293C13.2521 10.8824 13.2645 10.8356 13.2773 10.7873C13.3105 10.6623 13.3441 10.5375 13.378 10.4127C13.4113 10.2893 13.4439 10.1657 13.4767 10.0422C13.5408 9.80111 13.6062 9.56044 13.6724 9.31996C13.698 9.22652 13.7235 9.13303 13.7488 9.03949C13.7844 8.90815 13.8208 8.77704 13.8574 8.64597C13.8679 8.60671 13.8784 8.56744 13.8893 8.52698C13.8995 8.49104 13.9097 8.4551 13.9202 8.41806C13.9289 8.38677 13.9375 8.35547 13.9465 8.32323C14.0424 8.11799 14.2038 8.09553 14.414 8.12504Z" fill="black"/>
<path d="M8.04688 8.67188C8.60117 8.67188 9.15547 8.67188 9.72656 8.67188C9.66825 8.84682 9.61898 8.96899 9.52805 9.12323C9.50451 9.16336 9.48096 9.20349 9.45671 9.24484C9.43216 9.28618 9.40762 9.32752 9.38232 9.37012C9.35823 9.41116 9.33414 9.45219 9.30931 9.49448C9.17817 9.71717 9.0444 9.93784 8.90625 10.1562C8.80349 10.0635 8.74177 9.96554 8.67477 9.84482C8.6533 9.80642 8.63182 9.76803 8.6097 9.72847C8.58751 9.68836 8.56533 9.64826 8.54248 9.60693C8.49874 9.52832 8.45495 9.44974 8.4111 9.37119C8.38972 9.33281 8.36834 9.29443 8.34631 9.25489C8.26385 9.11007 8.17706 8.96814 8.08896 8.82668C8.04688 8.75 8.04688 8.75 8.04688 8.67188Z" fill="black"/>
</g>
<defs>
<clipPath id="clip0_367_78655">
<rect width="20" height="20" fill="white"/>
</clipPath>
</defs>
</svg>
