<svg width="610" height="60" viewBox="0 0 610 60" fill="none" xmlns="http://www.w3.org/2000/svg">
<path d="M11.192 15.757C11.192 14.877 10.962 14.138 10.502 13.54C10.176 13.128 9.73371 12.8573 9.17504 12.728C8.62504 12.6 8.10504 12.591 7.63504 12.7C7.47504 11.75 7.73504 10.744 8.39504 9.678C9.05637 8.61267 9.90904 7.81167 10.953 7.275L9.37204 5C8.57204 5.396 7.81204 5.898 7.11204 6.505C6.40204 7.112 5.77204 7.81 5.21204 8.599C4.65204 9.388 4.23204 10.279 3.96204 11.289C3.69204 12.299 3.61704 13.329 3.74604 14.389C3.91404 15.789 4.36604 16.909 5.10204 17.739C5.83737 18.5797 6.75337 19 7.85004 19C8.81504 19 9.61604 18.71 10.25 18.122C10.8774 17.546 11.1907 16.7567 11.19 15.754L11.192 15.757ZM20.316 15.757C20.316 14.877 20.086 14.138 19.626 13.54C19.2994 13.12 18.857 12.8477 18.299 12.723C17.739 12.5997 17.2257 12.5923 16.759 12.701C16.599 11.761 16.849 10.751 17.511 9.681C18.171 8.621 19.023 7.821 20.067 7.281L18.49 5C17.6894 5.396 16.936 5.89767 16.23 6.505C15.5136 7.12107 14.8773 7.82456 14.336 8.599C13.78 9.389 13.366 10.279 13.096 11.289C12.8218 12.2982 12.748 13.3514 12.879 14.389C13.045 15.789 13.495 16.909 14.229 17.739C14.9624 18.5737 15.8767 18.991 16.972 18.991C17.9387 18.9923 18.7394 18.7 19.374 18.114C20.0014 17.538 20.3154 16.7487 20.316 15.746V15.757Z" fill="#333333"/>
<path d="M33.824 21V9.8H38.016C38.9653 9.8 39.7813 9.95467 40.464 10.264C41.1467 10.5627 41.6693 11 42.032 11.576C42.4053 12.1413 42.592 12.8293 42.592 13.64C42.592 14.4293 42.4053 15.112 42.032 15.688C41.6693 16.2533 41.1467 16.6907 40.464 17C39.7813 17.2987 38.9653 17.448 38.016 17.448H34.48L35.008 16.904V21H33.824ZM41.472 21L38.592 16.936H39.872L42.768 21H41.472ZM35.008 17L34.48 16.44H37.984C39.104 16.44 39.952 16.1947 40.528 15.704C41.1147 15.2133 41.408 14.5253 41.408 13.64C41.408 12.744 41.1147 12.0507 40.528 11.56C39.952 11.0693 39.104 10.824 37.984 10.824H34.48L35.008 10.264V17ZM50.3145 21.08C49.4398 21.08 48.6718 20.8987 48.0105 20.536C47.3492 20.1627 46.8318 19.656 46.4585 19.016C46.0852 18.3653 45.8985 17.624 45.8985 16.792C45.8985 15.96 46.0745 15.224 46.4265 14.584C46.7892 13.944 47.2798 13.4427 47.8985 13.08C48.5278 12.7067 49.2318 12.52 50.0105 12.52C50.7998 12.52 51.4985 12.7013 52.1065 13.064C52.7252 13.416 53.2105 13.9173 53.5625 14.568C53.9145 15.208 54.0905 15.9493 54.0905 16.792C54.0905 16.8453 54.0852 16.904 54.0745 16.968C54.0745 17.0213 54.0745 17.08 54.0745 17.144H46.7625V16.296H53.4665L53.0185 16.632C53.0185 16.024 52.8852 15.4853 52.6185 15.016C52.3625 14.536 52.0105 14.1627 51.5625 13.896C51.1145 13.6293 50.5972 13.496 50.0105 13.496C49.4345 13.496 48.9172 13.6293 48.4585 13.896C47.9998 14.1627 47.6425 14.536 47.3865 15.016C47.1305 15.496 47.0025 16.0453 47.0025 16.664V16.84C47.0025 17.48 47.1412 18.0453 47.4185 18.536C47.7065 19.016 48.1012 19.3947 48.6025 19.672C49.1145 19.9387 49.6958 20.072 50.3465 20.072C50.8585 20.072 51.3332 19.9813 51.7705 19.8C52.2185 19.6187 52.6025 19.3413 52.9225 18.968L53.5625 19.704C53.1892 20.152 52.7198 20.4933 52.1545 20.728C51.5998 20.9627 50.9865 21.08 50.3145 21.08ZM61.4908 21.08C60.6588 21.08 59.9121 20.8987 59.2508 20.536C58.6001 20.1627 58.0881 19.656 57.7148 19.016C57.3414 18.3653 57.1548 17.624 57.1548 16.792C57.1548 15.9493 57.3414 15.208 57.7148 14.568C58.0881 13.928 58.6001 13.4267 59.2508 13.064C59.9121 12.7013 60.6588 12.52 61.4908 12.52C62.2054 12.52 62.8508 12.6587 63.4268 12.936C64.0028 13.2133 64.4561 13.6293 64.7868 14.184L63.9388 14.76C63.6508 14.3333 63.2934 14.0187 62.8668 13.816C62.4401 13.6133 61.9761 13.512 61.4748 13.512C60.8774 13.512 60.3388 13.6507 59.8588 13.928C59.3788 14.1947 59.0001 14.5733 58.7228 15.064C58.4454 15.5547 58.3068 16.1307 58.3068 16.792C58.3068 17.4533 58.4454 18.0293 58.7228 18.52C59.0001 19.0107 59.3788 19.3947 59.8588 19.672C60.3388 19.9387 60.8774 20.072 61.4748 20.072C61.9761 20.072 62.4401 19.9707 62.8668 19.768C63.2934 19.5653 63.6508 19.256 63.9388 18.84L64.7868 19.416C64.4561 19.96 64.0028 20.376 63.4268 20.664C62.8508 20.9413 62.2054 21.08 61.4908 21.08ZM71.9017 21.08C71.0911 21.08 70.3604 20.8987 69.7097 20.536C69.0697 20.1627 68.5631 19.656 68.1897 19.016C67.8164 18.3653 67.6297 17.624 67.6297 16.792C67.6297 15.9493 67.8164 15.208 68.1897 14.568C68.5631 13.928 69.0697 13.4267 69.7097 13.064C70.3497 12.7013 71.0804 12.52 71.9017 12.52C72.7337 12.52 73.4697 12.7013 74.1097 13.064C74.7604 13.4267 75.2671 13.928 75.6297 14.568C76.0031 15.208 76.1897 15.9493 76.1897 16.792C76.1897 17.624 76.0031 18.3653 75.6297 19.016C75.2671 19.656 74.7604 20.1627 74.1097 20.536C73.4591 20.8987 72.7231 21.08 71.9017 21.08ZM71.9017 20.072C72.5097 20.072 73.0484 19.9387 73.5177 19.672C73.9871 19.3947 74.3551 19.0107 74.6217 18.52C74.8991 18.0187 75.0377 17.4427 75.0377 16.792C75.0377 16.1307 74.8991 15.5547 74.6217 15.064C74.3551 14.5733 73.9871 14.1947 73.5177 13.928C73.0484 13.6507 72.5151 13.512 71.9177 13.512C71.3204 13.512 70.7871 13.6507 70.3177 13.928C69.8484 14.1947 69.4751 14.5733 69.1977 15.064C68.9204 15.5547 68.7817 16.1307 68.7817 16.792C68.7817 17.4427 68.9204 18.0187 69.1977 18.52C69.4751 19.0107 69.8484 19.3947 70.3177 19.672C70.7871 19.9387 71.3151 20.072 71.9017 20.072ZM83.693 24.184C82.925 24.184 82.189 24.072 81.485 23.848C80.781 23.624 80.2103 23.304 79.773 22.888L80.349 22.024C80.7437 22.376 81.229 22.6533 81.805 22.856C82.3917 23.0693 83.0103 23.176 83.661 23.176C84.7277 23.176 85.5117 22.9253 86.013 22.424C86.5143 21.9333 86.765 21.1653 86.765 20.12V18.024L86.925 16.584L86.813 15.144V12.6H87.901V19.976C87.901 21.4267 87.5437 22.488 86.829 23.16C86.125 23.8427 85.0797 24.184 83.693 24.184ZM83.485 20.68C82.685 20.68 81.965 20.5093 81.325 20.168C80.685 19.816 80.1783 19.3307 79.805 18.712C79.4423 18.0933 79.261 17.384 79.261 16.584C79.261 15.784 79.4423 15.08 79.805 14.472C80.1783 13.8533 80.685 13.3733 81.325 13.032C81.965 12.6907 82.685 12.52 83.485 12.52C84.2317 12.52 84.9037 12.6747 85.501 12.984C86.0983 13.2933 86.573 13.752 86.925 14.36C87.277 14.968 87.453 15.7093 87.453 16.584C87.453 17.4587 87.277 18.2 86.925 18.808C86.573 19.416 86.0983 19.88 85.501 20.2C84.9037 20.52 84.2317 20.68 83.485 20.68ZM83.597 19.672C84.2157 19.672 84.765 19.544 85.245 19.288C85.725 19.0213 86.1037 18.6587 86.381 18.2C86.6583 17.7307 86.797 17.192 86.797 16.584C86.797 15.976 86.6583 15.4427 86.381 14.984C86.1037 14.5253 85.725 14.168 85.245 13.912C84.765 13.6453 84.2157 13.512 83.597 13.512C82.989 13.512 82.4397 13.6453 81.949 13.912C81.469 14.168 81.0903 14.5253 80.813 14.984C80.5463 15.4427 80.413 15.976 80.413 16.584C80.413 17.192 80.5463 17.7307 80.813 18.2C81.0903 18.6587 81.469 19.0213 81.949 19.288C82.4397 19.544 82.989 19.672 83.597 19.672ZM96.9501 12.52C97.6328 12.52 98.2301 12.6533 98.7421 12.92C99.2648 13.176 99.6701 13.5707 99.9581 14.104C100.257 14.6373 100.406 15.3093 100.406 16.12V21H99.2701V16.232C99.2701 15.3467 99.0461 14.68 98.5981 14.232C98.1608 13.7733 97.5421 13.544 96.7421 13.544C96.1448 13.544 95.6221 13.6667 95.1741 13.912C94.7368 14.1467 94.3955 14.4933 94.1501 14.952C93.9155 15.4 93.7981 15.944 93.7981 16.584V21H92.6621V12.6H93.7501V14.904L93.5741 14.472C93.8408 13.864 94.2675 13.3893 94.8541 13.048C95.4408 12.696 96.1395 12.52 96.9501 12.52ZM105.075 21V12.6H106.211V21H105.075ZM105.651 10.744C105.416 10.744 105.219 10.664 105.059 10.504C104.899 10.344 104.819 10.152 104.819 9.928C104.819 9.704 104.899 9.51733 105.059 9.368C105.219 9.208 105.416 9.128 105.651 9.128C105.885 9.128 106.083 9.20267 106.243 9.352C106.403 9.50133 106.483 9.688 106.483 9.912C106.483 10.1467 106.403 10.344 106.243 10.504C106.093 10.664 105.896 10.744 105.651 10.744ZM110.059 21V20.248L115.659 13.16L115.899 13.544H110.155V12.6H116.795V13.336L111.211 20.44L110.923 20.056H116.907V21H110.059ZM120.743 21V12.6H121.879V21H120.743ZM121.319 10.744C121.085 10.744 120.887 10.664 120.727 10.504C120.567 10.344 120.487 10.152 120.487 9.928C120.487 9.704 120.567 9.51733 120.727 9.368C120.887 9.208 121.085 9.128 121.319 9.128C121.554 9.128 121.751 9.20267 121.911 9.352C122.071 9.50133 122.151 9.688 122.151 9.912C122.151 10.1467 122.071 10.344 121.911 10.504C121.762 10.664 121.565 10.744 121.319 10.744ZM130.928 12.52C131.611 12.52 132.208 12.6533 132.72 12.92C133.243 13.176 133.648 13.5707 133.936 14.104C134.235 14.6373 134.384 15.3093 134.384 16.12V21H133.248V16.232C133.248 15.3467 133.024 14.68 132.576 14.232C132.139 13.7733 131.52 13.544 130.72 13.544C130.123 13.544 129.6 13.6667 129.152 13.912C128.715 14.1467 128.374 14.4933 128.128 14.952C127.894 15.4 127.776 15.944 127.776 16.584V21H126.64V12.6H127.728V14.904L127.552 14.472C127.819 13.864 128.246 13.3893 128.832 13.048C129.419 12.696 130.118 12.52 130.928 12.52ZM142.637 24.184C141.869 24.184 141.133 24.072 140.429 23.848C139.725 23.624 139.154 23.304 138.717 22.888L139.293 22.024C139.687 22.376 140.173 22.6533 140.749 22.856C141.335 23.0693 141.954 23.176 142.605 23.176C143.671 23.176 144.455 22.9253 144.957 22.424C145.458 21.9333 145.709 21.1653 145.709 20.12V18.024L145.869 16.584L145.757 15.144V12.6H146.845V19.976C146.845 21.4267 146.487 22.488 145.773 23.16C145.069 23.8427 144.023 24.184 142.637 24.184ZM142.429 20.68C141.629 20.68 140.909 20.5093 140.269 20.168C139.629 19.816 139.122 19.3307 138.749 18.712C138.386 18.0933 138.205 17.384 138.205 16.584C138.205 15.784 138.386 15.08 138.749 14.472C139.122 13.8533 139.629 13.3733 140.269 13.032C140.909 12.6907 141.629 12.52 142.429 12.52C143.175 12.52 143.847 12.6747 144.445 12.984C145.042 13.2933 145.517 13.752 145.869 14.36C146.221 14.968 146.397 15.7093 146.397 16.584C146.397 17.4587 146.221 18.2 145.869 18.808C145.517 19.416 145.042 19.88 144.445 20.2C143.847 20.52 143.175 20.68 142.429 20.68ZM142.541 19.672C143.159 19.672 143.709 19.544 144.189 19.288C144.669 19.0213 145.047 18.6587 145.325 18.2C145.602 17.7307 145.741 17.192 145.741 16.584C145.741 15.976 145.602 15.4427 145.325 14.984C145.047 14.5253 144.669 14.168 144.189 13.912C143.709 13.6453 143.159 13.512 142.541 13.512C141.933 13.512 141.383 13.6453 140.893 13.912C140.413 14.168 140.034 14.5253 139.757 14.984C139.49 15.4427 139.357 15.976 139.357 16.584C139.357 17.192 139.49 17.7307 139.757 18.2C140.034 18.6587 140.413 19.0213 140.893 19.288C141.383 19.544 141.933 19.672 142.541 19.672ZM160.049 21.08C159.26 21.08 158.652 20.8667 158.225 20.44C157.799 20.0133 157.585 19.4107 157.585 18.632V10.744H158.721V18.568C158.721 19.0587 158.844 19.4373 159.089 19.704C159.345 19.9707 159.708 20.104 160.177 20.104C160.679 20.104 161.095 19.96 161.425 19.672L161.825 20.488C161.601 20.6907 161.329 20.84 161.009 20.936C160.7 21.032 160.38 21.08 160.049 21.08ZM156.081 13.544V12.6H161.281V13.544H156.081ZM169.781 12.52C170.464 12.52 171.061 12.6533 171.573 12.92C172.096 13.176 172.501 13.5707 172.789 14.104C173.088 14.6373 173.237 15.3093 173.237 16.12V21H172.101V16.232C172.101 15.3467 171.877 14.68 171.429 14.232C170.992 13.7733 170.373 13.544 169.573 13.544C168.976 13.544 168.453 13.6667 168.005 13.912C167.568 14.1467 167.227 14.4933 166.981 14.952C166.747 15.4 166.629 15.944 166.629 16.584V21H165.493V9.128H166.629V14.904L166.405 14.472C166.672 13.864 167.099 13.3893 167.685 13.048C168.272 12.696 168.971 12.52 169.781 12.52ZM181.474 21.08C180.599 21.08 179.831 20.8987 179.17 20.536C178.509 20.1627 177.991 19.656 177.618 19.016C177.245 18.3653 177.058 17.624 177.058 16.792C177.058 15.96 177.234 15.224 177.586 14.584C177.949 13.944 178.439 13.4427 179.058 13.08C179.687 12.7067 180.391 12.52 181.17 12.52C181.959 12.52 182.658 12.7013 183.266 13.064C183.885 13.416 184.37 13.9173 184.722 14.568C185.074 15.208 185.25 15.9493 185.25 16.792C185.25 16.8453 185.245 16.904 185.234 16.968C185.234 17.0213 185.234 17.08 185.234 17.144H177.922V16.296H184.626L184.178 16.632C184.178 16.024 184.045 15.4853 183.778 15.016C183.522 14.536 183.17 14.1627 182.722 13.896C182.274 13.6293 181.757 13.496 181.17 13.496C180.594 13.496 180.077 13.6293 179.618 13.896C179.159 14.1627 178.802 14.536 178.546 15.016C178.29 15.496 178.162 16.0453 178.162 16.664V16.84C178.162 17.48 178.301 18.0453 178.578 18.536C178.866 19.016 179.261 19.3947 179.762 19.672C180.274 19.9387 180.855 20.072 181.506 20.072C182.018 20.072 182.493 19.9813 182.93 19.8C183.378 19.6187 183.762 19.3413 184.082 18.968L184.722 19.704C184.349 20.152 183.879 20.4933 183.314 20.728C182.759 20.9627 182.146 21.08 181.474 21.08ZM198.518 21.08C197.643 21.08 196.875 20.8987 196.214 20.536C195.552 20.1627 195.035 19.656 194.662 19.016C194.288 18.3653 194.102 17.624 194.102 16.792C194.102 15.96 194.278 15.224 194.63 14.584C194.992 13.944 195.483 13.4427 196.102 13.08C196.731 12.7067 197.435 12.52 198.214 12.52C199.003 12.52 199.702 12.7013 200.31 13.064C200.928 13.416 201.414 13.9173 201.766 14.568C202.118 15.208 202.294 15.9493 202.294 16.792C202.294 16.8453 202.288 16.904 202.278 16.968C202.278 17.0213 202.278 17.08 202.278 17.144H194.966V16.296H201.67L201.222 16.632C201.222 16.024 201.088 15.4853 200.822 15.016C200.566 14.536 200.214 14.1627 199.766 13.896C199.318 13.6293 198.8 13.496 198.214 13.496C197.638 13.496 197.12 13.6293 196.662 13.896C196.203 14.1627 195.846 14.536 195.59 15.016C195.334 15.496 195.206 16.0453 195.206 16.664V16.84C195.206 17.48 195.344 18.0453 195.622 18.536C195.91 19.016 196.304 19.3947 196.806 19.672C197.318 19.9387 197.899 20.072 198.55 20.072C199.062 20.072 199.536 19.9813 199.974 19.8C200.422 19.6187 200.806 19.3413 201.126 18.968L201.766 19.704C201.392 20.152 200.923 20.4933 200.358 20.728C199.803 20.9627 199.19 21.08 198.518 21.08ZM208.21 21L204.482 12.6H205.666L209.09 20.392H208.53L212.002 12.6H213.122L209.378 21H208.21ZM219.655 21.08C218.78 21.08 218.012 20.8987 217.351 20.536C216.69 20.1627 216.172 19.656 215.799 19.016C215.426 18.3653 215.239 17.624 215.239 16.792C215.239 15.96 215.415 15.224 215.767 14.584C216.13 13.944 216.62 13.4427 217.239 13.08C217.868 12.7067 218.572 12.52 219.351 12.52C220.14 12.52 220.839 12.7013 221.447 13.064C222.066 13.416 222.551 13.9173 222.903 14.568C223.255 15.208 223.431 15.9493 223.431 16.792C223.431 16.8453 223.426 16.904 223.415 16.968C223.415 17.0213 223.415 17.08 223.415 17.144H216.103V16.296H222.807L222.359 16.632C222.359 16.024 222.226 15.4853 221.959 15.016C221.703 14.536 221.351 14.1627 220.903 13.896C220.455 13.6293 219.938 13.496 219.351 13.496C218.775 13.496 218.258 13.6293 217.799 13.896C217.34 14.1627 216.983 14.536 216.727 15.016C216.471 15.496 216.343 16.0453 216.343 16.664V16.84C216.343 17.48 216.482 18.0453 216.759 18.536C217.047 19.016 217.442 19.3947 217.943 19.672C218.455 19.9387 219.036 20.072 219.687 20.072C220.199 20.072 220.674 19.9813 221.111 19.8C221.559 19.6187 221.943 19.3413 222.263 18.968L222.903 19.704C222.53 20.152 222.06 20.4933 221.495 20.728C220.94 20.9627 220.327 21.08 219.655 21.08ZM227.343 21V12.6H228.431V14.888L228.319 14.488C228.554 13.848 228.949 13.3627 229.503 13.032C230.058 12.6907 230.746 12.52 231.567 12.52V13.624C231.525 13.624 231.482 13.624 231.439 13.624C231.397 13.6133 231.354 13.608 231.311 13.608C230.426 13.608 229.733 13.88 229.231 14.424C228.73 14.9573 228.479 15.72 228.479 16.712V21H227.343ZM234.569 17.16V16.168H238.761V17.16H234.569ZM246.627 21.08C245.752 21.08 244.984 20.8987 244.323 20.536C243.662 20.1627 243.144 19.656 242.771 19.016C242.398 18.3653 242.211 17.624 242.211 16.792C242.211 15.96 242.387 15.224 242.739 14.584C243.102 13.944 243.592 13.4427 244.211 13.08C244.84 12.7067 245.544 12.52 246.323 12.52C247.112 12.52 247.811 12.7013 248.419 13.064C249.038 13.416 249.523 13.9173 249.875 14.568C250.227 15.208 250.403 15.9493 250.403 16.792C250.403 16.8453 250.398 16.904 250.387 16.968C250.387 17.0213 250.387 17.08 250.387 17.144H243.075V16.296H249.779L249.331 16.632C249.331 16.024 249.198 15.4853 248.931 15.016C248.675 14.536 248.323 14.1627 247.875 13.896C247.427 13.6293 246.91 13.496 246.323 13.496C245.747 13.496 245.23 13.6293 244.771 13.896C244.312 14.1627 243.955 14.536 243.699 15.016C243.443 15.496 243.315 16.0453 243.315 16.664V16.84C243.315 17.48 243.454 18.0453 243.731 18.536C244.019 19.016 244.414 19.3947 244.915 19.672C245.427 19.9387 246.008 20.072 246.659 20.072C247.171 20.072 247.646 19.9813 248.083 19.8C248.531 19.6187 248.915 19.3413 249.235 18.968L249.875 19.704C249.502 20.152 249.032 20.4933 248.467 20.728C247.912 20.9627 247.299 21.08 246.627 21.08ZM256.319 21L252.591 12.6H253.775L257.199 20.392H256.639L260.111 12.6H261.231L257.487 21H256.319ZM267.621 21.08C266.81 21.08 266.079 20.8987 265.429 20.536C264.789 20.1627 264.282 19.656 263.909 19.016C263.535 18.3653 263.349 17.624 263.349 16.792C263.349 15.9493 263.535 15.208 263.909 14.568C264.282 13.928 264.789 13.4267 265.429 13.064C266.069 12.7013 266.799 12.52 267.621 12.52C268.453 12.52 269.189 12.7013 269.829 13.064C270.479 13.4267 270.986 13.928 271.349 14.568C271.722 15.208 271.909 15.9493 271.909 16.792C271.909 17.624 271.722 18.3653 271.349 19.016C270.986 19.656 270.479 20.1627 269.829 20.536C269.178 20.8987 268.442 21.08 267.621 21.08ZM267.621 20.072C268.229 20.072 268.767 19.9387 269.237 19.672C269.706 19.3947 270.074 19.0107 270.341 18.52C270.618 18.0187 270.757 17.4427 270.757 16.792C270.757 16.1307 270.618 15.5547 270.341 15.064C270.074 14.5733 269.706 14.1947 269.237 13.928C268.767 13.6507 268.234 13.512 267.637 13.512C267.039 13.512 266.506 13.6507 266.037 13.928C265.567 14.1947 265.194 14.5733 264.917 15.064C264.639 15.5547 264.501 16.1307 264.501 16.792C264.501 17.4427 264.639 18.0187 264.917 18.52C265.194 19.0107 265.567 19.3947 266.037 19.672C266.506 19.9387 267.034 20.072 267.621 20.072ZM275.828 21V9.128H276.964V21H275.828ZM283.885 21L280.157 12.6H281.341L284.765 20.392H284.205L287.677 12.6H288.797L285.053 21H283.885ZM291.997 21V12.6H293.133V21H291.997ZM292.573 10.744C292.338 10.744 292.141 10.664 291.981 10.504C291.821 10.344 291.741 10.152 291.741 9.928C291.741 9.704 291.821 9.51733 291.981 9.368C292.141 9.208 292.338 9.128 292.573 9.128C292.807 9.128 293.005 9.20267 293.165 9.352C293.325 9.50133 293.405 9.688 293.405 9.912C293.405 10.1467 293.325 10.344 293.165 10.504C293.015 10.664 292.818 10.744 292.573 10.744ZM302.181 12.52C302.864 12.52 303.461 12.6533 303.973 12.92C304.496 13.176 304.901 13.5707 305.189 14.104C305.488 14.6373 305.637 15.3093 305.637 16.12V21H304.501V16.232C304.501 15.3467 304.277 14.68 303.829 14.232C303.392 13.7733 302.773 13.544 301.973 13.544C301.376 13.544 300.853 13.6667 300.405 13.912C299.968 14.1467 299.627 14.4933 299.381 14.952C299.147 15.4 299.029 15.944 299.029 16.584V21H297.893V12.6H298.981V14.904L298.805 14.472C299.072 13.864 299.499 13.3893 300.085 13.048C300.672 12.696 301.371 12.52 302.181 12.52ZM313.89 24.184C313.122 24.184 312.386 24.072 311.682 23.848C310.978 23.624 310.407 23.304 309.97 22.888L310.546 22.024C310.941 22.376 311.426 22.6533 312.002 22.856C312.589 23.0693 313.207 23.176 313.858 23.176C314.925 23.176 315.709 22.9253 316.21 22.424C316.711 21.9333 316.962 21.1653 316.962 20.12V18.024L317.122 16.584L317.01 15.144V12.6H318.098V19.976C318.098 21.4267 317.741 22.488 317.026 23.16C316.322 23.8427 315.277 24.184 313.89 24.184ZM313.682 20.68C312.882 20.68 312.162 20.5093 311.522 20.168C310.882 19.816 310.375 19.3307 310.002 18.712C309.639 18.0933 309.458 17.384 309.458 16.584C309.458 15.784 309.639 15.08 310.002 14.472C310.375 13.8533 310.882 13.3733 311.522 13.032C312.162 12.6907 312.882 12.52 313.682 12.52C314.429 12.52 315.101 12.6747 315.698 12.984C316.295 13.2933 316.77 13.752 317.122 14.36C317.474 14.968 317.65 15.7093 317.65 16.584C317.65 17.4587 317.474 18.2 317.122 18.808C316.77 19.416 316.295 19.88 315.698 20.2C315.101 20.52 314.429 20.68 313.682 20.68ZM313.794 19.672C314.413 19.672 314.962 19.544 315.442 19.288C315.922 19.0213 316.301 18.6587 316.578 18.2C316.855 17.7307 316.994 17.192 316.994 16.584C316.994 15.976 316.855 15.4427 316.578 14.984C316.301 14.5253 315.922 14.168 315.442 13.912C314.962 13.6453 314.413 13.512 313.794 13.512C313.186 13.512 312.637 13.6453 312.146 13.912C311.666 14.168 311.287 14.5253 311.01 14.984C310.743 15.4427 310.61 15.976 310.61 16.584C310.61 17.192 310.743 17.7307 311.01 18.2C311.287 18.6587 311.666 19.0213 312.146 19.288C312.637 19.544 313.186 19.672 313.794 19.672ZM331.303 21.08C330.513 21.08 329.905 20.8667 329.479 20.44C329.052 20.0133 328.839 19.4107 328.839 18.632V10.744H329.975V18.568C329.975 19.0587 330.097 19.4373 330.343 19.704C330.599 19.9707 330.961 20.104 331.431 20.104C331.932 20.104 332.348 19.96 332.679 19.672L333.079 20.488C332.855 20.6907 332.583 20.84 332.263 20.936C331.953 21.032 331.633 21.08 331.303 21.08ZM327.335 13.544V12.6H332.535V13.544H327.335ZM340.018 21.08C339.143 21.08 338.375 20.8987 337.714 20.536C337.052 20.1627 336.535 19.656 336.162 19.016C335.788 18.3653 335.602 17.624 335.602 16.792C335.602 15.96 335.778 15.224 336.13 14.584C336.492 13.944 336.983 13.4427 337.602 13.08C338.231 12.7067 338.935 12.52 339.714 12.52C340.503 12.52 341.202 12.7013 341.81 13.064C342.428 13.416 342.914 13.9173 343.266 14.568C343.618 15.208 343.794 15.9493 343.794 16.792C343.794 16.8453 343.788 16.904 343.778 16.968C343.778 17.0213 343.778 17.08 343.778 17.144H336.466V16.296H343.17L342.722 16.632C342.722 16.024 342.588 15.4853 342.322 15.016C342.066 14.536 341.714 14.1627 341.266 13.896C340.818 13.6293 340.3 13.496 339.714 13.496C339.138 13.496 338.62 13.6293 338.162 13.896C337.703 14.1627 337.346 14.536 337.09 15.016C336.834 15.496 336.706 16.0453 336.706 16.664V16.84C336.706 17.48 336.844 18.0453 337.122 18.536C337.41 19.016 337.804 19.3947 338.306 19.672C338.818 19.9387 339.399 20.072 340.05 20.072C340.562 20.072 341.036 19.9813 341.474 19.8C341.922 19.6187 342.306 19.3413 342.626 18.968L343.266 19.704C342.892 20.152 342.423 20.4933 341.858 20.728C341.303 20.9627 340.69 21.08 340.018 21.08ZM351.194 21.08C350.362 21.08 349.615 20.8987 348.954 20.536C348.303 20.1627 347.791 19.656 347.418 19.016C347.045 18.3653 346.858 17.624 346.858 16.792C346.858 15.9493 347.045 15.208 347.418 14.568C347.791 13.928 348.303 13.4267 348.954 13.064C349.615 12.7013 350.362 12.52 351.194 12.52C351.909 12.52 352.554 12.6587 353.13 12.936C353.706 13.2133 354.159 13.6293 354.49 14.184L353.642 14.76C353.354 14.3333 352.997 14.0187 352.57 13.816C352.143 13.6133 351.679 13.512 351.178 13.512C350.581 13.512 350.042 13.6507 349.562 13.928C349.082 14.1947 348.703 14.5733 348.426 15.064C348.149 15.5547 348.01 16.1307 348.01 16.792C348.01 17.4533 348.149 18.0293 348.426 18.52C348.703 19.0107 349.082 19.3947 349.562 19.672C350.042 19.9387 350.581 20.072 351.178 20.072C351.679 20.072 352.143 19.9707 352.57 19.768C352.997 19.5653 353.354 19.256 353.642 18.84L354.49 19.416C354.159 19.96 353.706 20.376 353.13 20.664C352.554 20.9413 351.909 21.08 351.194 21.08ZM362.484 12.52C363.167 12.52 363.764 12.6533 364.276 12.92C364.799 13.176 365.204 13.5707 365.492 14.104C365.791 14.6373 365.94 15.3093 365.94 16.12V21H364.804V16.232C364.804 15.3467 364.58 14.68 364.132 14.232C363.695 13.7733 363.076 13.544 362.276 13.544C361.679 13.544 361.156 13.6667 360.708 13.912C360.271 14.1467 359.93 14.4933 359.684 14.952C359.45 15.4 359.332 15.944 359.332 16.584V21H358.196V9.128H359.332V14.904L359.108 14.472C359.375 13.864 359.802 13.3893 360.388 13.048C360.975 12.696 361.674 12.52 362.484 12.52ZM374.897 12.52C375.58 12.52 376.177 12.6533 376.689 12.92C377.212 13.176 377.617 13.5707 377.905 14.104C378.204 14.6373 378.353 15.3093 378.353 16.12V21H377.217V16.232C377.217 15.3467 376.993 14.68 376.545 14.232C376.108 13.7733 375.489 13.544 374.689 13.544C374.092 13.544 373.569 13.6667 373.121 13.912C372.684 14.1467 372.342 14.4933 372.097 14.952C371.862 15.4 371.745 15.944 371.745 16.584V21H370.609V12.6H371.697V14.904L371.521 14.472C371.788 13.864 372.214 13.3893 372.801 13.048C373.388 12.696 374.086 12.52 374.897 12.52ZM386.446 21.08C385.635 21.08 384.904 20.8987 384.254 20.536C383.614 20.1627 383.107 19.656 382.734 19.016C382.36 18.3653 382.174 17.624 382.174 16.792C382.174 15.9493 382.36 15.208 382.734 14.568C383.107 13.928 383.614 13.4267 384.254 13.064C384.894 12.7013 385.624 12.52 386.446 12.52C387.278 12.52 388.014 12.7013 388.654 13.064C389.304 13.4267 389.811 13.928 390.174 14.568C390.547 15.208 390.734 15.9493 390.734 16.792C390.734 17.624 390.547 18.3653 390.174 19.016C389.811 19.656 389.304 20.1627 388.654 20.536C388.003 20.8987 387.267 21.08 386.446 21.08ZM386.446 20.072C387.054 20.072 387.592 19.9387 388.062 19.672C388.531 19.3947 388.899 19.0107 389.166 18.52C389.443 18.0187 389.582 17.4427 389.582 16.792C389.582 16.1307 389.443 15.5547 389.166 15.064C388.899 14.5733 388.531 14.1947 388.062 13.928C387.592 13.6507 387.059 13.512 386.462 13.512C385.864 13.512 385.331 13.6507 384.862 13.928C384.392 14.1947 384.019 14.5733 383.742 15.064C383.464 15.5547 383.326 16.1307 383.326 16.792C383.326 17.4427 383.464 18.0187 383.742 18.52C384.019 19.0107 384.392 19.3947 384.862 19.672C385.331 19.9387 385.859 20.072 386.446 20.072ZM394.653 21V9.128H395.789V21H394.653ZM403.974 21.08C403.163 21.08 402.432 20.8987 401.782 20.536C401.142 20.1627 400.635 19.656 400.262 19.016C399.888 18.3653 399.702 17.624 399.702 16.792C399.702 15.9493 399.888 15.208 400.262 14.568C400.635 13.928 401.142 13.4267 401.782 13.064C402.422 12.7013 403.152 12.52 403.974 12.52C404.806 12.52 405.542 12.7013 406.182 13.064C406.832 13.4267 407.339 13.928 407.702 14.568C408.075 15.208 408.262 15.9493 408.262 16.792C408.262 17.624 408.075 18.3653 407.702 19.016C407.339 19.656 406.832 20.1627 406.182 20.536C405.531 20.8987 404.795 21.08 403.974 21.08ZM403.974 20.072C404.582 20.072 405.12 19.9387 405.59 19.672C406.059 19.3947 406.427 19.0107 406.694 18.52C406.971 18.0187 407.11 17.4427 407.11 16.792C407.11 16.1307 406.971 15.5547 406.694 15.064C406.427 14.5733 406.059 14.1947 405.59 13.928C405.12 13.6507 404.587 13.512 403.99 13.512C403.392 13.512 402.859 13.6507 402.39 13.928C401.92 14.1947 401.547 14.5733 401.27 15.064C400.992 15.5547 400.854 16.1307 400.854 16.792C400.854 17.4427 400.992 18.0187 401.27 18.52C401.547 19.0107 401.92 19.3947 402.39 19.672C402.859 19.9387 403.387 20.072 403.974 20.072ZM415.765 24.184C414.997 24.184 414.261 24.072 413.557 23.848C412.853 23.624 412.282 23.304 411.845 22.888L412.421 22.024C412.816 22.376 413.301 22.6533 413.877 22.856C414.464 23.0693 415.082 23.176 415.733 23.176C416.8 23.176 417.584 22.9253 418.085 22.424C418.586 21.9333 418.837 21.1653 418.837 20.12V18.024L418.997 16.584L418.885 15.144V12.6H419.973V19.976C419.973 21.4267 419.616 22.488 418.901 23.16C418.197 23.8427 417.152 24.184 415.765 24.184ZM415.557 20.68C414.757 20.68 414.037 20.5093 413.397 20.168C412.757 19.816 412.25 19.3307 411.877 18.712C411.514 18.0933 411.333 17.384 411.333 16.584C411.333 15.784 411.514 15.08 411.877 14.472C412.25 13.8533 412.757 13.3733 413.397 13.032C414.037 12.6907 414.757 12.52 415.557 12.52C416.304 12.52 416.976 12.6747 417.573 12.984C418.17 13.2933 418.645 13.752 418.997 14.36C419.349 14.968 419.525 15.7093 419.525 16.584C419.525 17.4587 419.349 18.2 418.997 18.808C418.645 19.416 418.17 19.88 417.573 20.2C416.976 20.52 416.304 20.68 415.557 20.68ZM415.669 19.672C416.288 19.672 416.837 19.544 417.317 19.288C417.797 19.0213 418.176 18.6587 418.453 18.2C418.73 17.7307 418.869 17.192 418.869 16.584C418.869 15.976 418.73 15.4427 418.453 14.984C418.176 14.5253 417.797 14.168 417.317 13.912C416.837 13.6453 416.288 13.512 415.669 13.512C415.061 13.512 414.512 13.6453 414.021 13.912C413.541 14.168 413.162 14.5253 412.885 14.984C412.618 15.4427 412.485 15.976 412.485 16.584C412.485 17.192 412.618 17.7307 412.885 18.2C413.162 18.6587 413.541 19.0213 414.021 19.288C414.512 19.544 415.061 19.672 415.669 19.672ZM424.734 21V12.6H425.87V21H424.734ZM425.31 10.744C425.075 10.744 424.878 10.664 424.718 10.504C424.558 10.344 424.478 10.152 424.478 9.928C424.478 9.704 424.558 9.51733 424.718 9.368C424.878 9.208 425.075 9.128 425.31 9.128C425.545 9.128 425.742 9.20267 425.902 9.352C426.062 9.50133 426.142 9.688 426.142 9.912C426.142 10.1467 426.062 10.344 425.902 10.504C425.753 10.664 425.555 10.744 425.31 10.744ZM434.119 21.08C433.287 21.08 432.54 20.8987 431.879 20.536C431.228 20.1627 430.716 19.656 430.343 19.016C429.97 18.3653 429.783 17.624 429.783 16.792C429.783 15.9493 429.97 15.208 430.343 14.568C430.716 13.928 431.228 13.4267 431.879 13.064C432.54 12.7013 433.287 12.52 434.119 12.52C434.834 12.52 435.479 12.6587 436.055 12.936C436.631 13.2133 437.084 13.6293 437.415 14.184L436.567 14.76C436.279 14.3333 435.922 14.0187 435.495 13.816C435.068 13.6133 434.604 13.512 434.103 13.512C433.506 13.512 432.967 13.6507 432.487 13.928C432.007 14.1947 431.628 14.5733 431.351 15.064C431.074 15.5547 430.935 16.1307 430.935 16.792C430.935 17.4533 431.074 18.0293 431.351 18.52C431.628 19.0107 432.007 19.3947 432.487 19.672C432.967 19.9387 433.506 20.072 434.103 20.072C434.604 20.072 435.068 19.9707 435.495 19.768C435.922 19.5653 436.279 19.256 436.567 18.84L437.415 19.416C437.084 19.96 436.631 20.376 436.055 20.664C435.479 20.9413 434.834 21.08 434.119 21.08ZM446.511 21V19.144L446.463 18.84V15.736C446.463 15.0213 446.26 14.472 445.855 14.088C445.46 13.704 444.868 13.512 444.079 13.512C443.535 13.512 443.017 13.6027 442.527 13.784C442.036 13.9653 441.62 14.2053 441.279 14.504L440.767 13.656C441.193 13.2933 441.705 13.016 442.303 12.824C442.9 12.6213 443.529 12.52 444.191 12.52C445.279 12.52 446.116 12.792 446.703 13.336C447.3 13.8693 447.599 14.6853 447.599 15.784V21H446.511ZM443.615 21.08C442.985 21.08 442.436 20.9787 441.967 20.776C441.508 20.5627 441.156 20.2747 440.911 19.912C440.665 19.5387 440.543 19.112 440.543 18.632C440.543 18.1947 440.644 17.8 440.847 17.448C441.06 17.0853 441.401 16.7973 441.871 16.584C442.351 16.36 442.991 16.248 443.791 16.248H446.687V17.096H443.823C443.012 17.096 442.447 17.24 442.127 17.528C441.817 17.816 441.663 18.1733 441.663 18.6C441.663 19.08 441.849 19.464 442.223 19.752C442.596 20.04 443.119 20.184 443.791 20.184C444.431 20.184 444.98 20.04 445.439 19.752C445.908 19.4533 446.249 19.0267 446.463 18.472L446.719 19.256C446.505 19.8107 446.132 20.2533 445.599 20.584C445.076 20.9147 444.415 21.08 443.615 21.08ZM452.284 21V9.128H453.42V21H452.284ZM463.968 21V9.128H465.104V21H463.968ZM475.129 21V19.144L475.081 18.84V15.736C475.081 15.0213 474.879 14.472 474.473 14.088C474.079 13.704 473.487 13.512 472.697 13.512C472.153 13.512 471.636 13.6027 471.145 13.784C470.655 13.9653 470.239 14.2053 469.897 14.504L469.385 13.656C469.812 13.2933 470.324 13.016 470.921 12.824C471.519 12.6213 472.148 12.52 472.809 12.52C473.897 12.52 474.735 12.792 475.321 13.336C475.919 13.8693 476.217 14.6853 476.217 15.784V21H475.129ZM472.233 21.08C471.604 21.08 471.055 20.9787 470.585 20.776C470.127 20.5627 469.775 20.2747 469.529 19.912C469.284 19.5387 469.161 19.112 469.161 18.632C469.161 18.1947 469.263 17.8 469.465 17.448C469.679 17.0853 470.02 16.7973 470.489 16.584C470.969 16.36 471.609 16.248 472.409 16.248H475.305V17.096H472.441C471.631 17.096 471.065 17.24 470.745 17.528C470.436 17.816 470.281 18.1733 470.281 18.6C470.281 19.08 470.468 19.464 470.841 19.752C471.215 20.04 471.737 20.184 472.409 20.184C473.049 20.184 473.599 20.04 474.057 19.752C474.527 19.4533 474.868 19.0267 475.081 18.472L475.337 19.256C475.124 19.8107 474.751 20.2533 474.217 20.584C473.695 20.9147 473.033 21.08 472.233 21.08ZM485.191 12.52C485.873 12.52 486.471 12.6533 486.983 12.92C487.505 13.176 487.911 13.5707 488.199 14.104C488.497 14.6373 488.647 15.3093 488.647 16.12V21H487.511V16.232C487.511 15.3467 487.287 14.68 486.839 14.232C486.401 13.7733 485.783 13.544 484.983 13.544C484.385 13.544 483.863 13.6667 483.415 13.912C482.977 14.1467 482.636 14.4933 482.391 14.952C482.156 15.4 482.039 15.944 482.039 16.584V21H480.903V12.6H481.991V14.904L481.815 14.472C482.081 13.864 482.508 13.3893 483.095 13.048C483.681 12.696 484.38 12.52 485.191 12.52ZM496.659 21.08C495.859 21.08 495.139 20.8987 494.499 20.536C493.87 20.1733 493.374 19.672 493.011 19.032C492.649 18.3813 492.467 17.6347 492.467 16.792C492.467 15.9387 492.649 15.192 493.011 14.552C493.374 13.912 493.87 13.416 494.499 13.064C495.139 12.7013 495.859 12.52 496.659 12.52C497.395 12.52 498.051 12.6853 498.627 13.016C499.214 13.3467 499.678 13.832 500.019 14.472C500.371 15.1013 500.547 15.8747 500.547 16.792C500.547 17.6987 500.377 18.472 500.035 19.112C499.694 19.752 499.23 20.2427 498.643 20.584C498.067 20.9147 497.406 21.08 496.659 21.08ZM496.739 20.072C497.337 20.072 497.87 19.9387 498.339 19.672C498.819 19.3947 499.193 19.0107 499.459 18.52C499.737 18.0187 499.875 17.4427 499.875 16.792C499.875 16.1307 499.737 15.5547 499.459 15.064C499.193 14.5733 498.819 14.1947 498.339 13.928C497.87 13.6507 497.337 13.512 496.739 13.512C496.153 13.512 495.625 13.6507 495.155 13.928C494.686 14.1947 494.313 14.5733 494.035 15.064C493.758 15.5547 493.619 16.1307 493.619 16.792C493.619 17.4427 493.758 18.0187 494.035 18.52C494.313 19.0107 494.686 19.3947 495.155 19.672C495.625 19.9387 496.153 20.072 496.739 20.072ZM499.907 21V18.472L500.019 16.776L499.859 15.08V9.128H500.995V21H499.907ZM508.015 21.08C507.322 21.08 506.666 20.984 506.047 20.792C505.428 20.5893 504.943 20.3387 504.591 20.04L505.103 19.144C505.444 19.4 505.882 19.624 506.415 19.816C506.948 19.9973 507.508 20.088 508.095 20.088C508.895 20.088 509.471 19.9653 509.823 19.72C510.175 19.464 510.351 19.128 510.351 18.712C510.351 18.4027 510.25 18.1627 510.047 17.992C509.855 17.8107 509.599 17.6773 509.279 17.592C508.959 17.496 508.602 17.416 508.207 17.352C507.812 17.288 507.418 17.2133 507.023 17.128C506.639 17.0427 506.287 16.92 505.967 16.76C505.647 16.5893 505.386 16.36 505.183 16.072C504.991 15.784 504.895 15.4 504.895 14.92C504.895 14.4613 505.023 14.0507 505.279 13.688C505.535 13.3253 505.908 13.0427 506.399 12.84C506.9 12.6267 507.508 12.52 508.223 12.52C508.767 12.52 509.311 12.5947 509.855 12.744C510.399 12.8827 510.847 13.0693 511.199 13.304L510.703 14.216C510.33 13.96 509.93 13.7787 509.503 13.672C509.076 13.5547 508.65 13.496 508.223 13.496C507.466 13.496 506.906 13.6293 506.543 13.896C506.191 14.152 506.015 14.4827 506.015 14.888C506.015 15.208 506.111 15.4587 506.303 15.64C506.506 15.8213 506.767 15.9653 507.087 16.072C507.418 16.168 507.775 16.248 508.159 16.312C508.554 16.376 508.943 16.456 509.327 16.552C509.722 16.6373 510.079 16.76 510.399 16.92C510.73 17.0693 510.991 17.288 511.183 17.576C511.386 17.8533 511.487 18.2213 511.487 18.68C511.487 19.1707 511.348 19.5973 511.071 19.96C510.804 20.312 510.41 20.5893 509.887 20.792C509.375 20.984 508.751 21.08 508.015 21.08ZM518.659 21.08C517.827 21.08 517.081 20.8987 516.419 20.536C515.769 20.1627 515.257 19.656 514.883 19.016C514.51 18.3653 514.323 17.624 514.323 16.792C514.323 15.9493 514.51 15.208 514.883 14.568C515.257 13.928 515.769 13.4267 516.419 13.064C517.081 12.7013 517.827 12.52 518.659 12.52C519.374 12.52 520.019 12.6587 520.595 12.936C521.171 13.2133 521.625 13.6293 521.955 14.184L521.107 14.76C520.819 14.3333 520.462 14.0187 520.035 13.816C519.609 13.6133 519.145 13.512 518.643 13.512C518.046 13.512 517.507 13.6507 517.027 13.928C516.547 14.1947 516.169 14.5733 515.891 15.064C515.614 15.5547 515.475 16.1307 515.475 16.792C515.475 17.4533 515.614 18.0293 515.891 18.52C516.169 19.0107 516.547 19.3947 517.027 19.672C517.507 19.9387 518.046 20.072 518.643 20.072C519.145 20.072 519.609 19.9707 520.035 19.768C520.462 19.5653 520.819 19.256 521.107 18.84L521.955 19.416C521.625 19.96 521.171 20.376 520.595 20.664C520.019 20.9413 519.374 21.08 518.659 21.08ZM531.051 21V19.144L531.003 18.84V15.736C531.003 15.0213 530.8 14.472 530.395 14.088C530 13.704 529.408 13.512 528.619 13.512C528.075 13.512 527.558 13.6027 527.067 13.784C526.576 13.9653 526.16 14.2053 525.819 14.504L525.307 13.656C525.734 13.2933 526.246 13.016 526.843 12.824C527.44 12.6213 528.07 12.52 528.731 12.52C529.819 12.52 530.656 12.792 531.243 13.336C531.84 13.8693 532.139 14.6853 532.139 15.784V21H531.051ZM528.155 21.08C527.526 21.08 526.976 20.9787 526.507 20.776C526.048 20.5627 525.696 20.2747 525.451 19.912C525.206 19.5387 525.083 19.112 525.083 18.632C525.083 18.1947 525.184 17.8 525.387 17.448C525.6 17.0853 525.942 16.7973 526.411 16.584C526.891 16.36 527.531 16.248 528.331 16.248H531.227V17.096H528.363C527.552 17.096 526.987 17.24 526.667 17.528C526.358 17.816 526.203 18.1733 526.203 18.6C526.203 19.08 526.39 19.464 526.763 19.752C527.136 20.04 527.659 20.184 528.331 20.184C528.971 20.184 529.52 20.04 529.979 19.752C530.448 19.4533 530.79 19.0267 531.003 18.472L531.259 19.256C531.046 19.8107 530.672 20.2533 530.139 20.584C529.616 20.9147 528.955 21.08 528.155 21.08ZM541.161 21.08C540.435 21.08 539.779 20.9147 539.193 20.584C538.606 20.2427 538.137 19.7573 537.785 19.128C537.443 18.488 537.273 17.7093 537.273 16.792C537.273 15.8747 537.443 15.1013 537.785 14.472C538.126 13.832 538.59 13.3467 539.177 13.016C539.763 12.6853 540.425 12.52 541.161 12.52C541.961 12.52 542.675 12.7013 543.305 13.064C543.945 13.416 544.446 13.9173 544.809 14.568C545.171 15.208 545.353 15.9493 545.353 16.792C545.353 17.6453 545.171 18.392 544.809 19.032C544.446 19.672 543.945 20.1733 543.305 20.536C542.675 20.8987 541.961 21.08 541.161 21.08ZM536.825 24.104V12.6H537.913V15.128L537.801 16.808L537.961 18.504V24.104H536.825ZM541.081 20.072C541.678 20.072 542.211 19.9387 542.681 19.672C543.15 19.3947 543.523 19.0107 543.801 18.52C544.078 18.0187 544.217 17.4427 544.217 16.792C544.217 16.1413 544.078 15.5707 543.801 15.08C543.523 14.5893 543.15 14.2053 542.681 13.928C542.211 13.6507 541.678 13.512 541.081 13.512C540.483 13.512 539.945 13.6507 539.465 13.928C538.995 14.2053 538.622 14.5893 538.345 15.08C538.078 15.5707 537.945 16.1413 537.945 16.792C537.945 17.4427 538.078 18.0187 538.345 18.52C538.622 19.0107 538.995 19.3947 539.465 19.672C539.945 19.9387 540.483 20.072 541.081 20.072ZM552.836 21.08C551.962 21.08 551.194 20.8987 550.532 20.536C549.871 20.1627 549.354 19.656 548.98 19.016C548.607 18.3653 548.42 17.624 548.42 16.792C548.42 15.96 548.596 15.224 548.948 14.584C549.311 13.944 549.802 13.4427 550.42 13.08C551.05 12.7067 551.754 12.52 552.532 12.52C553.322 12.52 554.02 12.7013 554.628 13.064C555.247 13.416 555.732 13.9173 556.084 14.568C556.436 15.208 556.612 15.9493 556.612 16.792C556.612 16.8453 556.607 16.904 556.596 16.968C556.596 17.0213 556.596 17.08 556.596 17.144H549.284V16.296H555.988L555.54 16.632C555.54 16.024 555.407 15.4853 555.14 15.016C554.884 14.536 554.532 14.1627 554.084 13.896C553.636 13.6293 553.119 13.496 552.532 13.496C551.956 13.496 551.439 13.6293 550.98 13.896C550.522 14.1627 550.164 14.536 549.908 15.016C549.652 15.496 549.524 16.0453 549.524 16.664V16.84C549.524 17.48 549.663 18.0453 549.94 18.536C550.228 19.016 550.623 19.3947 551.124 19.672C551.636 19.9387 552.218 20.072 552.868 20.072C553.38 20.072 553.855 19.9813 554.292 19.8C554.74 19.6187 555.124 19.3413 555.444 18.968L556.084 19.704C555.711 20.152 555.242 20.4933 554.676 20.728C554.122 20.9627 553.508 21.08 552.836 21.08ZM571.576 21V19.144L571.528 18.84V15.736C571.528 15.0213 571.325 14.472 570.92 14.088C570.525 13.704 569.933 13.512 569.144 13.512C568.6 13.512 568.083 13.6027 567.592 13.784C567.101 13.9653 566.685 14.2053 566.344 14.504L565.832 13.656C566.259 13.2933 566.771 13.016 567.368 12.824C567.965 12.6213 568.595 12.52 569.256 12.52C570.344 12.52 571.181 12.792 571.768 13.336C572.365 13.8693 572.664 14.6853 572.664 15.784V21H571.576ZM568.68 21.08C568.051 21.08 567.501 20.9787 567.032 20.776C566.573 20.5627 566.221 20.2747 565.976 19.912C565.731 19.5387 565.608 19.112 565.608 18.632C565.608 18.1947 565.709 17.8 565.912 17.448C566.125 17.0853 566.467 16.7973 566.936 16.584C567.416 16.36 568.056 16.248 568.856 16.248H571.752V17.096H568.888C568.077 17.096 567.512 17.24 567.192 17.528C566.883 17.816 566.728 18.1733 566.728 18.6C566.728 19.08 566.915 19.464 567.288 19.752C567.661 20.04 568.184 20.184 568.856 20.184C569.496 20.184 570.045 20.04 570.504 19.752C570.973 19.4533 571.315 19.0267 571.528 18.472L571.784 19.256C571.571 19.8107 571.197 20.2533 570.664 20.584C570.141 20.9147 569.48 21.08 568.68 21.08ZM581.638 12.52C582.32 12.52 582.918 12.6533 583.43 12.92C583.952 13.176 584.358 13.5707 584.646 14.104C584.944 14.6373 585.094 15.3093 585.094 16.12V21H583.958V16.232C583.958 15.3467 583.734 14.68 583.286 14.232C582.848 13.7733 582.23 13.544 581.43 13.544C580.832 13.544 580.31 13.6667 579.862 13.912C579.424 14.1467 579.083 14.4933 578.838 14.952C578.603 15.4 578.486 15.944 578.486 16.584V21H577.35V12.6H578.438V14.904L578.262 14.472C578.528 13.864 578.955 13.3893 579.542 13.048C580.128 12.696 580.827 12.52 581.638 12.52ZM593.106 21.08C592.306 21.08 591.586 20.8987 590.946 20.536C590.317 20.1733 589.821 19.672 589.458 19.032C589.095 18.3813 588.914 17.6347 588.914 16.792C588.914 15.9387 589.095 15.192 589.458 14.552C589.821 13.912 590.317 13.416 590.946 13.064C591.586 12.7013 592.306 12.52 593.106 12.52C593.842 12.52 594.498 12.6853 595.074 13.016C595.661 13.3467 596.125 13.832 596.466 14.472C596.818 15.1013 596.994 15.8747 596.994 16.792C596.994 17.6987 596.823 18.472 596.482 19.112C596.141 19.752 595.677 20.2427 595.09 20.584C594.514 20.9147 593.853 21.08 593.106 21.08ZM593.186 20.072C593.783 20.072 594.317 19.9387 594.786 19.672C595.266 19.3947 595.639 19.0107 595.906 18.52C596.183 18.0187 596.322 17.4427 596.322 16.792C596.322 16.1307 596.183 15.5547 595.906 15.064C595.639 14.5733 595.266 14.1947 594.786 13.928C594.317 13.6507 593.783 13.512 593.186 13.512C592.599 13.512 592.071 13.6507 591.602 13.928C591.133 14.1947 590.759 14.5733 590.482 15.064C590.205 15.5547 590.066 16.1307 590.066 16.792C590.066 17.4427 590.205 18.0187 590.482 18.52C590.759 19.0107 591.133 19.3947 591.602 19.672C592.071 19.9387 592.599 20.072 593.186 20.072ZM596.354 21V18.472L596.466 16.776L596.306 15.08V9.128H597.442V21H596.354ZM33.584 51V42.6H34.672V44.888L34.56 44.488C34.7947 43.848 35.1893 43.3627 35.744 43.032C36.2987 42.6907 36.9867 42.52 37.808 42.52V43.624C37.7653 43.624 37.7227 43.624 37.68 43.624C37.6373 43.6133 37.5947 43.608 37.552 43.608C36.6667 43.608 35.9733 43.88 35.472 44.424C34.9707 44.9573 34.72 45.72 34.72 46.712V51H33.584ZM46.1199 51V49.144L46.0719 48.84V45.736C46.0719 45.0213 45.8692 44.472 45.4639 44.088C45.0692 43.704 44.4772 43.512 43.6879 43.512C43.1439 43.512 42.6265 43.6027 42.1359 43.784C41.6452 43.9653 41.2292 44.2053 40.8879 44.504L40.3759 43.656C40.8025 43.2933 41.3145 43.016 41.9119 42.824C42.5092 42.6213 43.1385 42.52 43.7999 42.52C44.8879 42.52 45.7252 42.792 46.3119 43.336C46.9092 43.8693 47.2079 44.6853 47.2079 45.784V51H46.1199ZM43.2239 51.08C42.5945 51.08 42.0452 50.9787 41.5759 50.776C41.1172 50.5627 40.7652 50.2747 40.5199 49.912C40.2745 49.5387 40.1519 49.112 40.1519 48.632C40.1519 48.1947 40.2532 47.8 40.4559 47.448C40.6692 47.0853 41.0105 46.7973 41.4799 46.584C41.9599 46.36 42.5999 46.248 43.3999 46.248H46.2959V47.096H43.4319C42.6212 47.096 42.0559 47.24 41.7359 47.528C41.4265 47.816 41.2719 48.1733 41.2719 48.6C41.2719 49.08 41.4585 49.464 41.8319 49.752C42.2052 50.04 42.7279 50.184 43.3999 50.184C44.0399 50.184 44.5892 50.04 45.0479 49.752C45.5172 49.4533 45.8585 49.0267 46.0719 48.472L46.3279 49.256C46.1145 49.8107 45.7412 50.2533 45.2079 50.584C44.6852 50.9147 44.0239 51.08 43.2239 51.08ZM56.2294 51.08C55.504 51.08 54.848 50.9147 54.2614 50.584C53.6747 50.2427 53.2054 49.7573 52.8534 49.128C52.512 48.488 52.3414 47.7093 52.3414 46.792C52.3414 45.8747 52.512 45.1013 52.8534 44.472C53.1947 43.832 53.6587 43.3467 54.2454 43.016C54.832 42.6853 55.4934 42.52 56.2294 42.52C57.0294 42.52 57.744 42.7013 58.3734 43.064C59.0134 43.416 59.5147 43.9173 59.8774 44.568C60.24 45.208 60.4214 45.9493 60.4214 46.792C60.4214 47.6453 60.24 48.392 59.8774 49.032C59.5147 49.672 59.0134 50.1733 58.3734 50.536C57.744 50.8987 57.0294 51.08 56.2294 51.08ZM51.8934 54.104V42.6H52.9814V45.128L52.8694 46.808L53.0294 48.504V54.104H51.8934ZM56.1494 50.072C56.7467 50.072 57.28 49.9387 57.7494 49.672C58.2187 49.3947 58.592 49.0107 58.8694 48.52C59.1467 48.0187 59.2854 47.4427 59.2854 46.792C59.2854 46.1413 59.1467 45.5707 58.8694 45.08C58.592 44.5893 58.2187 44.2053 57.7494 43.928C57.28 43.6507 56.7467 43.512 56.1494 43.512C55.552 43.512 55.0134 43.6507 54.5334 43.928C54.064 44.2053 53.6907 44.5893 53.4134 45.08C53.1467 45.5707 53.0134 46.1413 53.0134 46.792C53.0134 47.4427 53.1467 48.0187 53.4134 48.52C53.6907 49.0107 54.064 49.3947 54.5334 49.672C55.0134 49.9387 55.552 50.072 56.1494 50.072ZM64.3371 51V42.6H65.4731V51H64.3371ZM64.9131 40.744C64.6785 40.744 64.4811 40.664 64.3211 40.504C64.1611 40.344 64.0811 40.152 64.0811 39.928C64.0811 39.704 64.1611 39.5173 64.3211 39.368C64.4811 39.208 64.6785 39.128 64.9131 39.128C65.1478 39.128 65.3451 39.2027 65.5051 39.352C65.6651 39.5013 65.7451 39.688 65.7451 39.912C65.7451 40.1467 65.6651 40.344 65.5051 40.504C65.3558 40.664 65.1585 40.744 64.9131 40.744ZM73.578 51.08C72.778 51.08 72.058 50.8987 71.418 50.536C70.7887 50.1733 70.2927 49.672 69.93 49.032C69.5673 48.3813 69.386 47.6347 69.386 46.792C69.386 45.9387 69.5673 45.192 69.93 44.552C70.2927 43.912 70.7887 43.416 71.418 43.064C72.058 42.7013 72.778 42.52 73.578 42.52C74.314 42.52 74.97 42.6853 75.546 43.016C76.1327 43.3467 76.5967 43.832 76.938 44.472C77.29 45.1013 77.466 45.8747 77.466 46.792C77.466 47.6987 77.2953 48.472 76.954 49.112C76.6127 49.752 76.1487 50.2427 75.562 50.584C74.986 50.9147 74.3247 51.08 73.578 51.08ZM73.658 50.072C74.2553 50.072 74.7887 49.9387 75.258 49.672C75.738 49.3947 76.1113 49.0107 76.378 48.52C76.6553 48.0187 76.794 47.4427 76.794 46.792C76.794 46.1307 76.6553 45.5547 76.378 45.064C76.1113 44.5733 75.738 44.1947 75.258 43.928C74.7887 43.6507 74.2553 43.512 73.658 43.512C73.0713 43.512 72.5433 43.6507 72.074 43.928C71.6047 44.1947 71.2313 44.5733 70.954 45.064C70.6767 45.5547 70.538 46.1307 70.538 46.792C70.538 47.4427 70.6767 48.0187 70.954 48.52C71.2313 49.0107 71.6047 49.3947 72.074 49.672C72.5433 49.9387 73.0713 50.072 73.658 50.072ZM76.826 51V48.472L76.938 46.776L76.778 45.08V39.128H77.914V51H76.826ZM82.6778 51V39.128H83.8138V51H82.6778ZM88.6386 54.184C88.244 54.184 87.8653 54.12 87.5026 53.992C87.1506 53.864 86.8466 53.672 86.5906 53.416L87.1186 52.568C87.332 52.7707 87.5613 52.9253 87.8066 53.032C88.0626 53.1493 88.3453 53.208 88.6546 53.208C89.028 53.208 89.348 53.1013 89.6146 52.888C89.892 52.6853 90.1533 52.3227 90.3986 51.8L90.9426 50.568L91.0706 50.392L94.5266 42.6H95.6466L91.4386 52.008C91.204 52.552 90.9426 52.984 90.6546 53.304C90.3773 53.624 90.0733 53.848 89.7426 53.976C89.412 54.1147 89.044 54.184 88.6386 54.184ZM90.8786 51.24L87.0066 42.6H88.1906L91.6146 50.312L90.8786 51.24ZM108.122 51.08C107.29 51.08 106.543 50.8987 105.882 50.536C105.231 50.1627 104.719 49.656 104.346 49.016C103.973 48.3653 103.786 47.624 103.786 46.792C103.786 45.9493 103.973 45.208 104.346 44.568C104.719 43.928 105.231 43.4267 105.882 43.064C106.543 42.7013 107.29 42.52 108.122 42.52C108.837 42.52 109.482 42.6587 110.058 42.936C110.634 43.2133 111.087 43.6293 111.418 44.184L110.57 44.76C110.282 44.3333 109.925 44.0187 109.498 43.816C109.071 43.6133 108.607 43.512 108.106 43.512C107.509 43.512 106.97 43.6507 106.49 43.928C106.01 44.1947 105.631 44.5733 105.354 45.064C105.077 45.5547 104.938 46.1307 104.938 46.792C104.938 47.4533 105.077 48.0293 105.354 48.52C105.631 49.0107 106.01 49.3947 106.49 49.672C106.97 49.9387 107.509 50.072 108.106 50.072C108.607 50.072 109.071 49.9707 109.498 49.768C109.925 49.5653 110.282 49.256 110.57 48.84L111.418 49.416C111.087 49.96 110.634 50.376 110.058 50.664C109.482 50.9413 108.837 51.08 108.122 51.08ZM119.413 42.52C120.095 42.52 120.693 42.6533 121.205 42.92C121.727 43.176 122.133 43.5707 122.421 44.104C122.719 44.6373 122.869 45.3093 122.869 46.12V51H121.733V46.232C121.733 45.3467 121.509 44.68 121.061 44.232C120.623 43.7733 120.005 43.544 119.205 43.544C118.607 43.544 118.085 43.6667 117.637 43.912C117.199 44.1467 116.858 44.4933 116.613 44.952C116.378 45.4 116.261 45.944 116.261 46.584V51H115.125V39.128H116.261V44.904L116.037 44.472C116.303 43.864 116.73 43.3893 117.317 43.048C117.903 42.696 118.602 42.52 119.413 42.52ZM132.801 51V49.144L132.753 48.84V45.736C132.753 45.0213 132.55 44.472 132.145 44.088C131.75 43.704 131.158 43.512 130.369 43.512C129.825 43.512 129.308 43.6027 128.817 43.784C128.326 43.9653 127.91 44.2053 127.569 44.504L127.057 43.656C127.484 43.2933 127.996 43.016 128.593 42.824C129.19 42.6213 129.82 42.52 130.481 42.52C131.569 42.52 132.406 42.792 132.993 43.336C133.59 43.8693 133.889 44.6853 133.889 45.784V51H132.801ZM129.905 51.08C129.276 51.08 128.726 50.9787 128.257 50.776C127.798 50.5627 127.446 50.2747 127.201 49.912C126.956 49.5387 126.833 49.112 126.833 48.632C126.833 48.1947 126.934 47.8 127.137 47.448C127.35 47.0853 127.692 46.7973 128.161 46.584C128.641 46.36 129.281 46.248 130.081 46.248H132.977V47.096H130.113C129.302 47.096 128.737 47.24 128.417 47.528C128.108 47.816 127.953 48.1733 127.953 48.6C127.953 49.08 128.14 49.464 128.513 49.752C128.886 50.04 129.409 50.184 130.081 50.184C130.721 50.184 131.27 50.04 131.729 49.752C132.198 49.4533 132.54 49.0267 132.753 48.472L133.009 49.256C132.796 49.8107 132.422 50.2533 131.889 50.584C131.366 50.9147 130.705 51.08 129.905 51.08ZM142.863 42.52C143.545 42.52 144.143 42.6533 144.655 42.92C145.177 43.176 145.583 43.5707 145.871 44.104C146.169 44.6373 146.319 45.3093 146.319 46.12V51H145.183V46.232C145.183 45.3467 144.959 44.68 144.511 44.232C144.073 43.7733 143.455 43.544 142.655 43.544C142.057 43.544 141.535 43.6667 141.087 43.912C140.649 44.1467 140.308 44.4933 140.063 44.952C139.828 45.4 139.711 45.944 139.711 46.584V51H138.575V42.6H139.663V44.904L139.487 44.472C139.753 43.864 140.18 43.3893 140.767 43.048C141.353 42.696 142.052 42.52 142.863 42.52ZM154.571 54.184C153.803 54.184 153.067 54.072 152.363 53.848C151.659 53.624 151.088 53.304 150.651 52.888L151.227 52.024C151.622 52.376 152.107 52.6533 152.683 52.856C153.27 53.0693 153.888 53.176 154.539 53.176C155.606 53.176 156.39 52.9253 156.891 52.424C157.392 51.9333 157.643 51.1653 157.643 50.12V48.024L157.803 46.584L157.691 45.144V42.6H158.779V49.976C158.779 51.4267 158.422 52.488 157.707 53.16C157.003 53.8427 155.958 54.184 154.571 54.184ZM154.363 50.68C153.563 50.68 152.843 50.5093 152.203 50.168C151.563 49.816 151.056 49.3307 150.683 48.712C150.32 48.0933 150.139 47.384 150.139 46.584C150.139 45.784 150.32 45.08 150.683 44.472C151.056 43.8533 151.563 43.3733 152.203 43.032C152.843 42.6907 153.563 42.52 154.363 42.52C155.11 42.52 155.782 42.6747 156.379 42.984C156.976 43.2933 157.451 43.752 157.803 44.36C158.155 44.968 158.331 45.7093 158.331 46.584C158.331 47.4587 158.155 48.2 157.803 48.808C157.451 49.416 156.976 49.88 156.379 50.2C155.782 50.52 155.11 50.68 154.363 50.68ZM154.475 49.672C155.094 49.672 155.643 49.544 156.123 49.288C156.603 49.0213 156.982 48.6587 157.259 48.2C157.536 47.7307 157.675 47.192 157.675 46.584C157.675 45.976 157.536 45.4427 157.259 44.984C156.982 44.5253 156.603 44.168 156.123 43.912C155.643 43.6453 155.094 43.512 154.475 43.512C153.867 43.512 153.318 43.6453 152.827 43.912C152.347 44.168 151.968 44.5253 151.691 44.984C151.424 45.4427 151.291 45.976 151.291 46.584C151.291 47.192 151.424 47.7307 151.691 48.2C151.968 48.6587 152.347 49.0213 152.827 49.288C153.318 49.544 153.867 49.672 154.475 49.672ZM163.54 51V42.6H164.676V51H163.54ZM164.116 40.744C163.882 40.744 163.684 40.664 163.524 40.504C163.364 40.344 163.284 40.152 163.284 39.928C163.284 39.704 163.364 39.5173 163.524 39.368C163.684 39.208 163.882 39.128 164.116 39.128C164.351 39.128 164.548 39.2027 164.708 39.352C164.868 39.5013 164.948 39.688 164.948 39.912C164.948 40.1467 164.868 40.344 164.708 40.504C164.559 40.664 164.362 40.744 164.116 40.744ZM173.725 42.52C174.408 42.52 175.005 42.6533 175.517 42.92C176.04 43.176 176.445 43.5707 176.733 44.104C177.032 44.6373 177.181 45.3093 177.181 46.12V51H176.045V46.232C176.045 45.3467 175.821 44.68 175.373 44.232C174.936 43.7733 174.317 43.544 173.517 43.544C172.92 43.544 172.397 43.6667 171.949 43.912C171.512 44.1467 171.17 44.4933 170.925 44.952C170.69 45.4 170.573 45.944 170.573 46.584V51H169.437V42.6H170.525V44.904L170.349 44.472C170.616 43.864 171.042 43.3893 171.629 43.048C172.216 42.696 172.914 42.52 173.725 42.52ZM185.434 54.184C184.666 54.184 183.93 54.072 183.226 53.848C182.522 53.624 181.951 53.304 181.514 52.888L182.09 52.024C182.484 52.376 182.97 52.6533 183.546 52.856C184.132 53.0693 184.751 53.176 185.402 53.176C186.468 53.176 187.252 52.9253 187.754 52.424C188.255 51.9333 188.506 51.1653 188.506 50.12V48.024L188.666 46.584L188.554 45.144V42.6H189.642V49.976C189.642 51.4267 189.284 52.488 188.57 53.16C187.866 53.8427 186.82 54.184 185.434 54.184ZM185.226 50.68C184.426 50.68 183.706 50.5093 183.066 50.168C182.426 49.816 181.919 49.3307 181.546 48.712C181.183 48.0933 181.002 47.384 181.002 46.584C181.002 45.784 181.183 45.08 181.546 44.472C181.919 43.8533 182.426 43.3733 183.066 43.032C183.706 42.6907 184.426 42.52 185.226 42.52C185.972 42.52 186.644 42.6747 187.242 42.984C187.839 43.2933 188.314 43.752 188.666 44.36C189.018 44.968 189.194 45.7093 189.194 46.584C189.194 47.4587 189.018 48.2 188.666 48.808C188.314 49.416 187.839 49.88 187.242 50.2C186.644 50.52 185.972 50.68 185.226 50.68ZM185.338 49.672C185.956 49.672 186.506 49.544 186.986 49.288C187.466 49.0213 187.844 48.6587 188.122 48.2C188.399 47.7307 188.538 47.192 188.538 46.584C188.538 45.976 188.399 45.4427 188.122 44.984C187.844 44.5253 187.466 44.168 186.986 43.912C186.506 43.6453 185.956 43.512 185.338 43.512C184.73 43.512 184.18 43.6453 183.69 43.912C183.21 44.168 182.831 44.5253 182.554 44.984C182.287 45.4427 182.154 45.976 182.154 46.584C182.154 47.192 182.287 47.7307 182.554 48.2C182.831 48.6587 183.21 49.0213 183.69 49.288C184.18 49.544 184.73 49.672 185.338 49.672ZM210.686 42.52C211.369 42.52 211.961 42.6533 212.462 42.92C212.974 43.176 213.369 43.5707 213.646 44.104C213.934 44.6373 214.078 45.3093 214.078 46.12V51H212.942V46.232C212.942 45.3467 212.729 44.68 212.302 44.232C211.886 43.7733 211.294 43.544 210.526 43.544C209.95 43.544 209.449 43.6667 209.022 43.912C208.606 44.1467 208.281 44.4933 208.046 44.952C207.822 45.4 207.71 45.944 207.71 46.584V51H206.574V46.232C206.574 45.3467 206.361 44.68 205.934 44.232C205.508 43.7733 204.91 43.544 204.142 43.544C203.577 43.544 203.081 43.6667 202.654 43.912C202.228 44.1467 201.897 44.4933 201.662 44.952C201.438 45.4 201.326 45.944 201.326 46.584V51H200.19V42.6H201.278V44.872L201.102 44.472C201.358 43.864 201.769 43.3893 202.334 43.048C202.91 42.696 203.588 42.52 204.366 42.52C205.188 42.52 205.886 42.728 206.462 43.144C207.038 43.5493 207.412 44.1627 207.582 44.984L207.134 44.808C207.38 44.1253 207.812 43.576 208.43 43.16C209.06 42.7333 209.812 42.52 210.686 42.52ZM224.023 51V49.144L223.975 48.84V45.736C223.975 45.0213 223.772 44.472 223.367 44.088C222.972 43.704 222.38 43.512 221.591 43.512C221.047 43.512 220.53 43.6027 220.039 43.784C219.548 43.9653 219.132 44.2053 218.791 44.504L218.279 43.656C218.706 43.2933 219.218 43.016 219.815 42.824C220.412 42.6213 221.042 42.52 221.703 42.52C222.791 42.52 223.628 42.792 224.215 43.336C224.812 43.8693 225.111 44.6853 225.111 45.784V51H224.023ZM221.127 51.08C220.498 51.08 219.948 50.9787 219.479 50.776C219.02 50.5627 218.668 50.2747 218.423 49.912C218.178 49.5387 218.055 49.112 218.055 48.632C218.055 48.1947 218.156 47.8 218.359 47.448C218.572 47.0853 218.914 46.7973 219.383 46.584C219.863 46.36 220.503 46.248 221.303 46.248H224.199V47.096H221.335C220.524 47.096 219.959 47.24 219.639 47.528C219.33 47.816 219.175 48.1733 219.175 48.6C219.175 49.08 219.362 49.464 219.735 49.752C220.108 50.04 220.631 50.184 221.303 50.184C221.943 50.184 222.492 50.04 222.951 49.752C223.42 49.4533 223.762 49.0267 223.975 48.472L224.231 49.256C224.018 49.8107 223.644 50.2533 223.111 50.584C222.588 50.9147 221.927 51.08 221.127 51.08ZM229.796 51V42.6H230.884V44.888L230.772 44.488C231.007 43.848 231.402 43.3627 231.956 43.032C232.511 42.6907 233.199 42.52 234.02 42.52V43.624C233.978 43.624 233.935 43.624 233.892 43.624C233.85 43.6133 233.807 43.608 233.764 43.608C232.879 43.608 232.186 43.88 231.684 44.424C231.183 44.9573 230.932 45.72 230.932 46.712V51H229.796ZM238.589 48.824L238.621 47.368L243.853 42.6H245.245L241.549 46.136L240.909 46.68L238.589 48.824ZM237.693 51V39.128H238.829V51H237.693ZM244.205 51L240.701 46.632L241.437 45.752L245.597 51H244.205ZM252.143 51.08C251.268 51.08 250.5 50.8987 249.839 50.536C249.177 50.1627 248.66 49.656 248.287 49.016C247.913 48.3653 247.727 47.624 247.727 46.792C247.727 45.96 247.903 45.224 248.255 44.584C248.617 43.944 249.108 43.4427 249.727 43.08C250.356 42.7067 251.06 42.52 251.839 42.52C252.628 42.52 253.327 42.7013 253.935 43.064C254.553 43.416 255.039 43.9173 255.391 44.568C255.743 45.208 255.919 45.9493 255.919 46.792C255.919 46.8453 255.913 46.904 255.903 46.968C255.903 47.0213 255.903 47.08 255.903 47.144H248.591V46.296H255.295L254.847 46.632C254.847 46.024 254.713 45.4853 254.447 45.016C254.191 44.536 253.839 44.1627 253.391 43.896C252.943 43.6293 252.425 43.496 251.839 43.496C251.263 43.496 250.745 43.6293 250.287 43.896C249.828 44.1627 249.471 44.536 249.215 45.016C248.959 45.496 248.831 46.0453 248.831 46.664V46.84C248.831 47.48 248.969 48.0453 249.247 48.536C249.535 49.016 249.929 49.3947 250.431 49.672C250.943 49.9387 251.524 50.072 252.175 50.072C252.687 50.072 253.161 49.9813 253.599 49.8C254.047 49.6187 254.431 49.3413 254.751 48.968L255.391 49.704C255.017 50.152 254.548 50.4933 253.983 50.728C253.428 50.9627 252.815 51.08 252.143 51.08ZM262.487 51.08C261.698 51.08 261.09 50.8667 260.663 50.44C260.236 50.0133 260.023 49.4107 260.023 48.632V40.744H261.159V48.568C261.159 49.0587 261.282 49.4373 261.527 49.704C261.783 49.9707 262.146 50.104 262.615 50.104C263.116 50.104 263.532 49.96 263.863 49.672L264.263 50.488C264.039 50.6907 263.767 50.84 263.447 50.936C263.138 51.032 262.818 51.08 262.487 51.08ZM258.519 43.544V42.6H263.719V43.544H258.519ZM278.006 42.52C278.689 42.52 279.286 42.6533 279.798 42.92C280.321 43.176 280.726 43.5707 281.014 44.104C281.313 44.6373 281.462 45.3093 281.462 46.12V51H280.326V46.232C280.326 45.3467 280.102 44.68 279.654 44.232C279.217 43.7733 278.598 43.544 277.798 43.544C277.201 43.544 276.678 43.6667 276.23 43.912C275.793 44.1467 275.452 44.4933 275.206 44.952C274.972 45.4 274.854 45.944 274.854 46.584V51H273.718V42.6H274.806V44.904L274.63 44.472C274.897 43.864 275.324 43.3893 275.91 43.048C276.497 42.696 277.196 42.52 278.006 42.52ZM289.699 51.08C288.824 51.08 288.056 50.8987 287.395 50.536C286.734 50.1627 286.216 49.656 285.843 49.016C285.47 48.3653 285.283 47.624 285.283 46.792C285.283 45.96 285.459 45.224 285.811 44.584C286.174 43.944 286.664 43.4427 287.283 43.08C287.912 42.7067 288.616 42.52 289.395 42.52C290.184 42.52 290.883 42.7013 291.491 43.064C292.11 43.416 292.595 43.9173 292.947 44.568C293.299 45.208 293.475 45.9493 293.475 46.792C293.475 46.8453 293.47 46.904 293.459 46.968C293.459 47.0213 293.459 47.08 293.459 47.144H286.147V46.296H292.851L292.403 46.632C292.403 46.024 292.27 45.4853 292.003 45.016C291.747 44.536 291.395 44.1627 290.947 43.896C290.499 43.6293 289.982 43.496 289.395 43.496C288.819 43.496 288.302 43.6293 287.843 43.896C287.384 44.1627 287.027 44.536 286.771 45.016C286.515 45.496 286.387 46.0453 286.387 46.664V46.84C286.387 47.48 286.526 48.0453 286.803 48.536C287.091 49.016 287.486 49.3947 287.987 49.672C288.499 49.9387 289.08 50.072 289.731 50.072C290.243 50.072 290.718 49.9813 291.155 49.8C291.603 49.6187 291.987 49.3413 292.307 48.968L292.947 49.704C292.574 50.152 292.104 50.4933 291.539 50.728C290.984 50.9627 290.371 51.08 289.699 51.08ZM300.955 51.08C300.08 51.08 299.312 50.8987 298.651 50.536C297.99 50.1627 297.472 49.656 297.099 49.016C296.726 48.3653 296.539 47.624 296.539 46.792C296.539 45.96 296.715 45.224 297.067 44.584C297.43 43.944 297.92 43.4427 298.539 43.08C299.168 42.7067 299.872 42.52 300.651 42.52C301.44 42.52 302.139 42.7013 302.747 43.064C303.366 43.416 303.851 43.9173 304.203 44.568C304.555 45.208 304.731 45.9493 304.731 46.792C304.731 46.8453 304.726 46.904 304.715 46.968C304.715 47.0213 304.715 47.08 304.715 47.144H297.403V46.296H304.107L303.659 46.632C303.659 46.024 303.526 45.4853 303.259 45.016C303.003 44.536 302.651 44.1627 302.203 43.896C301.755 43.6293 301.238 43.496 300.651 43.496C300.075 43.496 299.558 43.6293 299.099 43.896C298.64 44.1627 298.283 44.536 298.027 45.016C297.771 45.496 297.643 46.0453 297.643 46.664V46.84C297.643 47.48 297.782 48.0453 298.059 48.536C298.347 49.016 298.742 49.3947 299.243 49.672C299.755 49.9387 300.336 50.072 300.987 50.072C301.499 50.072 301.974 49.9813 302.411 49.8C302.859 49.6187 303.243 49.3413 303.563 48.968L304.203 49.704C303.83 50.152 303.36 50.4933 302.795 50.728C302.24 50.9627 301.627 51.08 300.955 51.08ZM311.987 51.08C311.187 51.08 310.467 50.8987 309.827 50.536C309.198 50.1733 308.702 49.672 308.339 49.032C307.977 48.3813 307.795 47.6347 307.795 46.792C307.795 45.9387 307.977 45.192 308.339 44.552C308.702 43.912 309.198 43.416 309.827 43.064C310.467 42.7013 311.187 42.52 311.987 42.52C312.723 42.52 313.379 42.6853 313.955 43.016C314.542 43.3467 315.006 43.832 315.347 44.472C315.699 45.1013 315.875 45.8747 315.875 46.792C315.875 47.6987 315.705 48.472 315.363 49.112C315.022 49.752 314.558 50.2427 313.971 50.584C313.395 50.9147 312.734 51.08 311.987 51.08ZM312.067 50.072C312.665 50.072 313.198 49.9387 313.667 49.672C314.147 49.3947 314.521 49.0107 314.787 48.52C315.065 48.0187 315.203 47.4427 315.203 46.792C315.203 46.1307 315.065 45.5547 314.787 45.064C314.521 44.5733 314.147 44.1947 313.667 43.928C313.198 43.6507 312.665 43.512 312.067 43.512C311.481 43.512 310.953 43.6507 310.483 43.928C310.014 44.1947 309.641 44.5733 309.363 45.064C309.086 45.5547 308.947 46.1307 308.947 46.792C308.947 47.4427 309.086 48.0187 309.363 48.52C309.641 49.0107 310.014 49.3947 310.483 49.672C310.953 49.9387 311.481 50.072 312.067 50.072ZM315.235 51V48.472L315.347 46.776L315.187 45.08V39.128H316.323V51H315.235ZM323.343 51.08C322.65 51.08 321.994 50.984 321.375 50.792C320.756 50.5893 320.271 50.3387 319.919 50.04L320.431 49.144C320.772 49.4 321.21 49.624 321.743 49.816C322.276 49.9973 322.836 50.088 323.423 50.088C324.223 50.088 324.799 49.9653 325.151 49.72C325.503 49.464 325.679 49.128 325.679 48.712C325.679 48.4027 325.578 48.1627 325.375 47.992C325.183 47.8107 324.927 47.6773 324.607 47.592C324.287 47.496 323.93 47.416 323.535 47.352C323.14 47.288 322.746 47.2133 322.351 47.128C321.967 47.0427 321.615 46.92 321.295 46.76C320.975 46.5893 320.714 46.36 320.511 46.072C320.319 45.784 320.223 45.4 320.223 44.92C320.223 44.4613 320.351 44.0507 320.607 43.688C320.863 43.3253 321.236 43.0427 321.727 42.84C322.228 42.6267 322.836 42.52 323.551 42.52C324.095 42.52 324.639 42.5947 325.183 42.744C325.727 42.8827 326.175 43.0693 326.527 43.304L326.031 44.216C325.658 43.96 325.258 43.7787 324.831 43.672C324.404 43.5547 323.978 43.496 323.551 43.496C322.794 43.496 322.234 43.6293 321.871 43.896C321.519 44.152 321.343 44.4827 321.343 44.888C321.343 45.208 321.439 45.4587 321.631 45.64C321.834 45.8213 322.095 45.9653 322.415 46.072C322.746 46.168 323.103 46.248 323.487 46.312C323.882 46.376 324.271 46.456 324.655 46.552C325.05 46.6373 325.407 46.76 325.727 46.92C326.058 47.0693 326.319 47.288 326.511 47.576C326.714 47.8533 326.815 48.2213 326.815 48.68C326.815 49.1707 326.676 49.5973 326.399 49.96C326.132 50.312 325.738 50.5893 325.215 50.792C324.703 50.984 324.079 51.08 323.343 51.08Z" fill="#333333"/>
</svg>
