<svg width="151" height="34" viewBox="0 0 151 34" fill="none" xmlns="http://www.w3.org/2000/svg">
<g id="kotlin_logo.svg" clip-path="url(#clip0_192_123679)">
<path id="Vector" d="M141.915 9.70797C140.156 9.70797 138.609 10.1302 137.289 10.9918C136.231 11.6747 135.385 12.5853 134.717 13.7233L134.685 10.246H130.041V32.7437H134.878V20.1624C134.878 18.943 135.106 17.8678 135.578 16.925C136.034 15.982 136.689 15.2518 137.535 14.7315C138.382 14.2112 139.357 13.9506 140.497 13.9506C141.507 13.9506 142.388 14.1625 143.105 14.5853C143.838 15.008 144.374 15.6239 144.748 16.4044C145.123 17.201 145.302 18.1461 145.302 19.2353V32.7436H150.139V18.5508C150.171 16.8112 149.813 15.2836 149.146 13.9505C148.5 12.6591 147.5 11.5771 146.263 10.83C145.025 10.0822 143.577 9.70797 141.915 9.70797Z" fill="black"/>
<path id="Vector_2" d="M119.7 0.799805V5.75693H124.587V0.799805H119.7ZM119.7 10.246V32.7437H124.537V10.246H119.7Z" fill="black"/>
<path id="Vector_3" d="M109.407 0.75V32.7439H114.244V0.75H109.407Z" fill="black"/>
<path id="Vector_4" d="M95.6298 4.61914V8.43858C95.6298 9.04011 95.4835 9.49708 95.1904 9.78972C94.8972 10.0824 94.4411 10.2459 93.8222 10.2459H91.4932V14.2934H95.5478V26.4039C95.5478 27.6557 95.8076 28.7787 96.3125 29.7379C96.8174 30.6971 97.5505 31.4432 98.4951 31.9634C99.4397 32.4836 100.566 32.7618 101.853 32.7618H105.482V28.5505H102.746C102.046 28.5505 101.477 28.3071 101.021 27.8194C100.581 27.3316 100.37 26.6816 100.37 25.8688V14.3082H105.614V10.246H100.37V4.61925L95.6298 4.61914Z" fill="black"/>
<path id="Vector_5" d="M78.8853 9.70801C76.6377 9.70801 74.6342 10.212 72.8589 11.22C71.1136 12.2017 69.6762 13.6487 68.7075 15.3991C67.7141 17.1874 67.2251 19.2195 67.2251 21.4793C67.2251 23.7554 67.7141 25.771 68.7075 27.5594C69.6546 29.3151 71.0835 30.7648 72.8267 31.7385C74.6019 32.7465 76.6055 33.2506 78.8531 33.2506C81.068 33.2506 83.0561 32.7465 84.815 31.7385C86.5419 30.7543 87.9578 29.3065 88.9019 27.5594C89.8791 25.7711 90.3667 23.7391 90.3667 21.4793C90.3667 19.2032 89.8791 17.1876 88.9019 15.3991C87.9247 13.6109 86.5739 12.2279 84.815 11.22C83.0723 10.212 81.1002 9.70801 78.8853 9.70801ZM78.8531 14.0481C80.1072 14.0481 81.2317 14.3586 82.2253 14.9927C83.2024 15.6268 83.9671 16.5046 84.5045 17.6102C85.042 18.732 85.3043 20.0145 85.3043 21.494C85.3206 22.9572 85.0582 24.2414 84.5045 25.3632C83.9671 26.485 83.2024 27.3629 82.2253 27.9807C81.2481 28.6148 80.1089 28.9253 78.8386 28.9253C77.5519 28.9253 76.4117 28.6148 75.4021 27.9807C74.4086 27.3467 73.6267 26.4688 73.073 25.3632C72.5193 24.2414 72.241 22.9573 72.241 21.494C72.241 20.0308 72.5193 18.732 73.073 17.6102C73.6268 16.4884 74.4086 15.6105 75.4021 14.9927C76.3955 14.3586 77.5502 14.0481 78.8531 14.0481Z" fill="black"/>
<path id="Vector_6" d="M62.0133 1.93716L48.6919 16.13V1.98403H43.7729V32.7441H48.6919V17.8378L62.0631 32.7441H68.3971L54.1469 16.8288L68.1363 1.93701L62.0133 1.93716Z" fill="black"/>
<path id="Vector_7" d="M30.9724 32.7454H0.141357V1.98535H30.9724L15.2389 17.137L30.9724 32.7454Z" fill="url(#paint0_radial_192_123679)"/>
</g>
<defs>
<radialGradient id="paint0_radial_192_123679" cx="0" cy="0" r="1" gradientUnits="userSpaceOnUse" gradientTransform="translate(29.9433 3.24477) scale(35.3021 35.2397)">
<stop offset="0.003" stop-color="#E44857"/>
<stop offset="0.469" stop-color="#C711E1"/>
<stop offset="1" stop-color="#7F52FF"/>
</radialGradient>
<clipPath id="clip0_192_123679">
<rect width="150" height="32.5" fill="white" transform="translate(0.141357 0.75)"/>
</clipPath>
</defs>
</svg>
