<svg width="25" height="24" viewBox="0 0 25 24" fill="none" xmlns="http://www.w3.org/2000/svg">
<path d="M21.1332 20.4496H17.5417V14.8805C17.5417 13.5525 17.5177 11.8429 15.6737 11.8429C13.8031 11.8429 13.5169 13.2899 13.5169 14.7838V20.4492H9.92535V8.99689H13.3732V10.562H13.4215C13.7666 9.97782 14.2652 9.49726 14.8642 9.17149C15.4633 8.84572 16.1404 8.68693 16.8234 8.71203C20.4636 8.71203 21.1347 11.0828 21.1347 14.167L21.1332 20.4496ZM5.8729 7.43144C5.46068 7.43151 5.05769 7.31055 4.7149 7.08385C4.37211 6.85715 4.10493 6.53489 3.94711 6.15783C3.7893 5.78077 3.74794 5.36584 3.82828 4.96551C3.90863 4.56517 4.10707 4.19743 4.3985 3.90876C4.68994 3.6201 5.06127 3.42348 5.46556 3.34378C5.86984 3.26408 6.28891 3.30488 6.66978 3.46101C7.05064 3.61713 7.3762 3.88158 7.60528 4.22091C7.83436 4.56025 7.95667 4.95922 7.95675 5.36738C7.9568 5.63839 7.90293 5.90675 7.79823 6.15715C7.69353 6.40754 7.54007 6.63507 7.34657 6.82674C7.15306 7.0184 6.92331 7.17045 6.67046 7.27421C6.41761 7.37796 6.1466 7.43139 5.8729 7.43144ZM7.66867 20.4496H4.07339V8.99689H7.66867V20.4496ZM22.9237 0.00163516H2.26865C1.79983 -0.00360329 1.34808 0.175663 1.01268 0.500042C0.677292 0.824421 0.485702 1.26737 0.47998 1.73156V22.2681C0.485506 22.7325 0.676984 23.1758 1.01236 23.5005C1.34775 23.8252 1.7996 24.0048 2.26865 23.9999H22.9237C23.3937 24.0057 23.8468 23.8266 24.1835 23.5019C24.5203 23.1772 24.713 22.7334 24.7195 22.2681V1.73008C24.7128 1.26497 24.5199 0.821515 24.1832 0.497144C23.8465 0.172773 23.3935 -0.00598143 22.9237 0.000152822" fill="#003540"/>
</svg>
