<svg width="100" height="100" viewBox="0 0 100 100" fill="none" xmlns="http://www.w3.org/2000/svg">
<path d="M72.3069 18.0531C72.2036 17.9615 72.0906 18.0073 71.9795 18.0502C71.8928 18.0833 71.8032 18.1086 71.7175 18.1417C69.1467 19.1363 66.6159 20.2254 64.1338 21.4265C60.7311 23.0728 57.4376 24.9149 54.2463 26.9392C53.388 27.4838 52.5571 28.0702 51.7135 28.6381C51.1767 28.9576 50.6195 29.2499 50.1091 29.6074C49.7243 29.8762 49.4496 29.847 49.0677 29.5791C42.953 25.2968 36.4214 21.7665 29.5664 18.8246C28.9059 18.5411 28.2338 18.2908 27.5295 18.1398C26.943 18.0132 26.9177 18.0443 27.1106 18.6249C28.9303 24.1015 30.2054 29.7038 30.9565 35.424C31.4231 38.9767 31.6588 42.5479 31.7192 46.1288C31.7251 46.4834 31.8498 46.7046 32.144 46.8945C33.0597 47.4839 33.9695 48.0839 34.8657 48.7015C37.983 50.8476 40.92 53.2196 43.6924 55.7962C45.6387 57.6042 47.4769 59.5165 49.2392 61.5047C49.5704 61.8788 49.7983 61.8924 50.1003 61.5388C51.5177 59.8769 53.1338 58.4118 54.7002 56.8989C56.4576 55.202 58.1565 53.4437 60.1486 52.001C61.5728 50.9693 62.9317 49.8452 64.3199 48.7629C64.3627 48.7473 64.4114 48.7395 64.4484 48.7152C65.4119 48.0937 66.3753 47.4731 67.3358 46.8468C67.5998 46.6743 67.7079 46.4055 67.7099 46.1006C67.7186 44.3988 67.8102 42.7008 67.9183 41.0029C68.0089 39.5836 68.1346 38.1672 68.2963 36.7556C68.571 34.368 68.9285 31.9921 69.3912 29.6337C70.0507 26.2729 70.8096 22.9365 71.9026 19.6848C72.0468 19.2571 72.2046 18.8334 72.3536 18.4077C72.3974 18.283 72.4198 18.1534 72.3069 18.0531Z" fill="url(#paint0_linear_6_139)"/>
<mask id="mask0_6_139" style="mask-type:luminance" maskUnits="userSpaceOnUse" x="27" y="18" width="46" height="44">
<path d="M72.3059 18.0531C72.2026 17.9615 72.0896 18.0073 71.9786 18.0502C71.8919 18.0833 71.8022 18.1086 71.7165 18.1417C69.1458 19.1363 66.6149 20.2254 64.1328 21.4265C60.7301 23.0728 57.4366 24.9149 54.2453 26.9392C53.3871 27.4838 52.5561 28.0702 51.7125 28.6381C51.1758 28.9576 50.6186 29.2499 50.1081 29.6074C49.7233 29.8762 49.4486 29.847 49.0667 29.5791C42.9521 25.2968 36.4204 21.7665 29.5654 18.8246C28.9049 18.5411 28.2328 18.2908 27.5285 18.1398C26.942 18.0132 26.9167 18.0443 27.1096 18.6249C28.9293 24.1015 30.2044 29.7038 30.9555 35.424C31.4221 38.9767 31.6579 42.5479 31.7183 46.1288C31.7241 46.4834 31.8488 46.7046 32.143 46.8945C33.0587 47.4839 33.9685 48.0839 34.8647 48.7015C37.982 50.8476 40.919 53.2196 43.6914 55.7962C45.6378 57.6042 47.476 59.5165 49.2382 61.5047C49.5694 61.8788 49.7974 61.8924 50.0993 61.5388C51.5167 59.8769 53.1328 58.4118 54.6992 56.8989C56.4566 55.202 58.1555 53.4437 60.1476 52.001C61.5718 50.9693 62.9307 49.8452 64.3189 48.7629C64.3617 48.7473 64.4105 48.7395 64.4475 48.7152C65.4109 48.0937 66.3743 47.4731 67.3348 46.8468C67.5988 46.6743 67.707 46.4055 67.7089 46.1006C67.7177 44.3988 67.8092 42.7008 67.9174 41.0029C68.008 39.5836 68.1336 38.1672 68.2953 36.7556C68.57 34.368 68.9276 31.9921 69.3903 29.6337C70.0498 26.2729 70.8086 22.9365 71.9016 19.6848C72.0458 19.2571 72.2036 18.8334 72.3526 18.4077C72.3965 18.283 72.4189 18.1534 72.3059 18.0531Z" fill="white"/>
</mask>
<g mask="url(#mask0_6_139)">
<path d="M73.2068 17.2922C73.2068 17.2922 64.914 18.8742 30.2004 43.8756L29.8945 47.8248C29.8945 47.8248 49.6141 61.605 49.6141 62.1154C49.6141 62.6259 68.5543 46.8526 68.5543 46.8526L73.2068 17.2932V17.2922Z" fill="url(#paint1_linear_6_139)"/>
<path fill-rule="evenodd" clip-rule="evenodd" d="M85.1365 80.5247C69.4674 75.541 53.6269 70.0839 38.6826 64.5907C26.6987 60.1925 24.917 46.6928 35.3501 39.3361C55.2567 25.286 77.1875 10.7197 97.9913 -1.71717C116.554 -12.8273 131.491 0.831185 123.376 24.3791C121.785 29.0024 119.511 33.9218 116.715 38.9922L116.685 39.037C108.82 53.2731 96.9499 68.3246 85.1355 80.5247H85.1365Z" fill="url(#paint2_linear_6_139)"/>
<path fill-rule="evenodd" clip-rule="evenodd" d="M46.7227 54.8697C41.8997 60.1661 43.4165 66.7299 50.0406 69.0737C46.1411 67.6904 42.2777 66.3032 38.4844 64.9063C26.5005 60.508 24.7188 47.0084 35.1518 39.6517C36.7728 38.5314 38.422 37.3644 40.0381 36.2032C50.778 28.7228 60.5078 37.0897 52.3328 48.4384C50.6261 50.8085 48.4849 52.9058 46.7237 54.8707L46.7227 54.8697Z" fill="url(#paint3_linear_6_139)"/>
<path fill-rule="evenodd" clip-rule="evenodd" d="M71.6857 43.2501C71.3019 27.2167 53.3855 27.3541 39.1494 36.7799C40.3759 35.9587 41.5974 35.0965 42.8239 34.2744C46.7165 31.7806 52.1045 29.1319 57.513 28.0048C73.6379 24.681 80.0585 37.2377 76.3655 53.5624C74.2195 63.0008 69.2845 72.6439 63.6462 80.7702C61.3423 80.0016 59.0755 79.2291 56.8087 78.4556C63.3042 70.2572 71.9381 55.0139 71.6848 43.2511L71.6857 43.2501Z" fill="url(#paint4_linear_6_139)"/>
</g>
<path d="M31.5161 62.6482H37.2314L41.7485 73.8401H37.9912L37.059 71.4155H31.6759L30.7436 73.8401H27L31.5171 62.6482H31.5161ZM36.0595 68.8301L34.7668 65.4995H33.9671L32.6744 68.8301H36.0585H36.0595Z" fill="#00555C"/>
<path d="M44.2944 62.6482L46.0664 70.3225H46.2924L47.9445 62.6482H52.9273L54.5794 70.3225H54.8064L56.5783 62.6482H60.322L57.2047 73.8401H52.3554L50.5971 66.1658H50.2776L48.5193 73.8401H43.67L40.5527 62.6482H44.2964H44.2944Z" fill="#00555C"/>
<path d="M66.4649 62.4885C70.1686 62.4885 72.2075 63.8738 72.2075 66.4192H68.6363C68.6363 65.4996 67.6767 65.0466 66.3051 65.0466C64.9335 65.0466 64.2663 65.4733 64.2663 66.0997C64.2663 66.7796 65.1985 66.9121 66.3051 66.992C68.8769 67.1917 72.3935 67.1254 72.3935 70.0829C72.3935 72.7073 70.3546 74 66.5847 74C62.6277 74 60.5889 72.5748 60.5889 70.0167H64.1727C64.1727 70.9626 65.065 71.4419 66.8107 71.4419C68.1959 71.4419 68.8496 71.135 68.8496 70.5223C68.8496 69.7098 67.7167 69.59 66.2516 69.4965C63.9204 69.3504 60.736 69.2705 60.736 66.1386C60.736 63.8202 62.8274 62.4885 66.4649 62.4885Z" fill="#00555C"/>
<path d="M28.7744 84V76.8418H30.2002L31.8945 81.9102C32.0508 82.3822 32.1647 82.7354 32.2363 82.9697C32.3177 82.7093 32.4447 82.3268 32.6172 81.8223L34.3311 76.8418H35.6055V84H34.6924V78.0088L32.6123 84H31.7578L29.6875 77.9062V84H28.7744ZM40.4053 83.3604C40.0798 83.637 39.7656 83.8324 39.4629 83.9463C39.1634 84.0602 38.8411 84.1172 38.4961 84.1172C37.9264 84.1172 37.4886 83.9788 37.1826 83.7021C36.8766 83.4222 36.7236 83.0658 36.7236 82.6328C36.7236 82.3789 36.7806 82.1478 36.8945 81.9395C37.0117 81.7279 37.1631 81.5586 37.3486 81.4316C37.5374 81.3047 37.749 81.2087 37.9834 81.1436C38.1559 81.098 38.4163 81.054 38.7646 81.0117C39.4743 80.9271 39.9967 80.8262 40.332 80.709C40.3353 80.5885 40.3369 80.512 40.3369 80.4795C40.3369 80.1214 40.2539 79.8691 40.0879 79.7227C39.8633 79.5241 39.5296 79.4248 39.0869 79.4248C38.6735 79.4248 38.3675 79.498 38.1689 79.6445C37.9736 79.7878 37.8288 80.0433 37.7344 80.4111L36.875 80.2939C36.9531 79.9261 37.0817 79.6299 37.2607 79.4053C37.4398 79.1774 37.6986 79.0033 38.0371 78.8828C38.3757 78.7591 38.7679 78.6973 39.2139 78.6973C39.6566 78.6973 40.0163 78.7493 40.293 78.8535C40.5697 78.9577 40.7731 79.0895 40.9033 79.249C41.0335 79.4053 41.1247 79.6038 41.1768 79.8447C41.2061 79.9945 41.2207 80.2646 41.2207 80.6553V81.8271C41.2207 82.6442 41.2386 83.1618 41.2744 83.3799C41.3135 83.5947 41.3883 83.8014 41.499 84H40.5811C40.4899 83.8177 40.4313 83.6045 40.4053 83.3604ZM40.332 81.3975C40.013 81.5277 39.5345 81.6383 38.8965 81.7295C38.5352 81.7816 38.2796 81.8402 38.1299 81.9053C37.9801 81.9704 37.8646 82.0664 37.7832 82.1934C37.7018 82.3171 37.6611 82.4554 37.6611 82.6084C37.6611 82.8428 37.749 83.0381 37.9248 83.1943C38.1038 83.3506 38.3643 83.4287 38.7061 83.4287C39.0446 83.4287 39.3457 83.3555 39.6094 83.209C39.873 83.0592 40.0667 82.8558 40.1904 82.5986C40.2848 82.4001 40.332 82.1071 40.332 81.7197V81.3975ZM42.5781 84V78.8145H43.3691V79.6006C43.571 79.2327 43.7565 78.9902 43.9258 78.873C44.0983 78.7559 44.2871 78.6973 44.4922 78.6973C44.7884 78.6973 45.0895 78.7917 45.3955 78.9805L45.0928 79.7959C44.8779 79.6689 44.6631 79.6055 44.4482 79.6055C44.2562 79.6055 44.0837 79.6641 43.9307 79.7812C43.7777 79.8952 43.6686 80.0547 43.6035 80.2598C43.5059 80.5723 43.457 80.9141 43.457 81.2852V84H42.5781ZM45.9229 84V76.8418H46.8018V80.9238L48.8818 78.8145H50.0195L48.0371 80.7383L50.2197 84H49.1357L47.4219 81.3486L46.8018 81.9443V84H45.9229ZM54.4678 82.3301L55.376 82.4424C55.2327 82.973 54.9674 83.3848 54.5801 83.6777C54.1927 83.9707 53.6979 84.1172 53.0957 84.1172C52.3372 84.1172 51.735 83.8844 51.2891 83.4189C50.8464 82.9502 50.625 82.2943 50.625 81.4512C50.625 80.5788 50.8496 79.9017 51.2988 79.4199C51.748 78.9382 52.3307 78.6973 53.0469 78.6973C53.7402 78.6973 54.3066 78.9333 54.7461 79.4053C55.1855 79.8773 55.4053 80.5413 55.4053 81.3975C55.4053 81.4495 55.4036 81.5277 55.4004 81.6318H51.5332C51.5658 82.2015 51.7269 82.6377 52.0166 82.9404C52.3063 83.2432 52.6676 83.3945 53.1006 83.3945C53.4229 83.3945 53.6979 83.3099 53.9258 83.1406C54.1536 82.9714 54.3343 82.7012 54.4678 82.3301ZM51.582 80.9092H54.4775C54.4385 80.473 54.3278 80.1458 54.1455 79.9277C53.8656 79.5892 53.5026 79.4199 53.0566 79.4199C52.653 79.4199 52.3128 79.555 52.0361 79.8252C51.7627 80.0954 51.6113 80.4567 51.582 80.9092ZM58.4033 83.2139L58.5303 83.9902C58.2829 84.0423 58.0615 84.0684 57.8662 84.0684C57.5472 84.0684 57.2998 84.0179 57.124 83.917C56.9482 83.8161 56.8245 83.6842 56.7529 83.5215C56.6813 83.3555 56.6455 83.0088 56.6455 82.4814V79.498H56.001V78.8145H56.6455V77.5303L57.5195 77.0029V78.8145H58.4033V79.498H57.5195V82.5303C57.5195 82.7809 57.5342 82.9421 57.5635 83.0137C57.596 83.0853 57.6465 83.1423 57.7148 83.1846C57.7865 83.2269 57.8874 83.248 58.0176 83.248C58.1152 83.248 58.2438 83.2367 58.4033 83.2139ZM59.2725 77.8525V76.8418H60.1514V77.8525H59.2725ZM59.2725 84V78.8145H60.1514V84H59.2725ZM61.4941 84V78.8145H62.2852V79.5518C62.666 78.9821 63.2161 78.6973 63.9355 78.6973C64.248 78.6973 64.5345 78.7542 64.7949 78.8682C65.0586 78.9788 65.2555 79.1253 65.3857 79.3076C65.516 79.4899 65.6071 79.7064 65.6592 79.957C65.6917 80.1198 65.708 80.4046 65.708 80.8115V84H64.8291V80.8457C64.8291 80.4876 64.7949 80.2207 64.7266 80.0449C64.6582 79.8659 64.5361 79.7243 64.3604 79.6201C64.1878 79.5127 63.9844 79.459 63.75 79.459C63.3757 79.459 63.0518 79.5778 62.7783 79.8154C62.5081 80.0531 62.373 80.5039 62.373 81.168V84H61.4941ZM66.8994 84.4297L67.7539 84.5566C67.7897 84.8203 67.889 85.0124 68.0518 85.1328C68.2699 85.2956 68.5677 85.377 68.9453 85.377C69.3522 85.377 69.6663 85.2956 69.8877 85.1328C70.109 84.9701 70.2588 84.7422 70.3369 84.4492C70.3825 84.2702 70.4036 83.8942 70.4004 83.3213C70.0163 83.7738 69.5378 84 68.9648 84C68.252 84 67.7002 83.7428 67.3096 83.2285C66.9189 82.7142 66.7236 82.0973 66.7236 81.3779C66.7236 80.8831 66.8132 80.4274 66.9922 80.0107C67.1712 79.5908 67.43 79.2669 67.7686 79.0391C68.1104 78.8112 68.5107 78.6973 68.9697 78.6973C69.5817 78.6973 70.0863 78.9447 70.4834 79.4395V78.8145H71.2939V83.2969C71.2939 84.1042 71.2109 84.6755 71.0449 85.0107C70.8822 85.3493 70.6217 85.6162 70.2637 85.8115C69.9089 86.0068 69.471 86.1045 68.9502 86.1045C68.3317 86.1045 67.832 85.9645 67.4512 85.6846C67.0703 85.4079 66.8864 84.9896 66.8994 84.4297ZM67.627 81.3145C67.627 81.9948 67.762 82.4912 68.0322 82.8037C68.3024 83.1162 68.641 83.2725 69.0479 83.2725C69.4515 83.2725 69.79 83.1178 70.0635 82.8086C70.3369 82.4961 70.4736 82.0078 70.4736 81.3438C70.4736 80.709 70.332 80.2305 70.0488 79.9082C69.7689 79.5859 69.4303 79.4248 69.0332 79.4248C68.6426 79.4248 68.3105 79.5843 68.0371 79.9033C67.7637 80.2191 67.627 80.6895 67.627 81.3145Z" fill="#58595B"/>
<defs>
<linearGradient id="paint0_linear_6_139" x1="53.6413" y1="34.0164" x2="25.1331" y2="3.47798" gradientUnits="userSpaceOnUse">
<stop offset="0.25" stop-color="#19738C"/>
<stop offset="0.69" stop-color="#75C8B7"/>
<stop offset="0.99" stop-color="#CDCCAE"/>
</linearGradient>
<linearGradient id="paint1_linear_6_139" x1="86.1045" y1="33.0314" x2="11.7005" y2="53.1553" gradientUnits="userSpaceOnUse">
<stop stop-color="#753EB7"/>
<stop offset="0.34" stop-color="#2598B9"/>
<stop offset="0.69" stop-color="#5CE2C4"/>
<stop offset="0.99" stop-color="#FFFCD1"/>
</linearGradient>
<linearGradient id="paint2_linear_6_139" x1="74.0274" y1="9.22634" x2="84.0893" y2="82.0425" gradientUnits="userSpaceOnUse">
<stop offset="0.3" stop-color="#19738C"/>
<stop offset="0.69" stop-color="#75C8B7"/>
<stop offset="0.99" stop-color="#CDCCAE"/>
</linearGradient>
<linearGradient id="paint3_linear_6_139" x1="24.2044" y1="76.5142" x2="71.159" y2="18.5264" gradientUnits="userSpaceOnUse">
<stop stop-color="#3041B8"/>
<stop offset="0.34" stop-color="#19738C"/>
<stop offset="0.69" stop-color="#75C8B7"/>
<stop offset="0.99" stop-color="#CDCCAE"/>
</linearGradient>
<linearGradient id="paint4_linear_6_139" x1="42.3202" y1="64.3237" x2="90.5987" y2="34.2266" gradientUnits="userSpaceOnUse">
<stop stop-color="#3041B8"/>
<stop offset="0.34" stop-color="#19738C"/>
<stop offset="0.69" stop-color="#75C8B7"/>
<stop offset="0.99" stop-color="#CDCCAE"/>
</linearGradient>
</defs>
</svg>
