<svg width="346" height="346" viewBox="0 0 346 346" fill="none" xmlns="http://www.w3.org/2000/svg">
<g clip-path="url(#clip0_1370_66631)">
<path d="M351.346 0.417442C350.534 -0.302186 349.645 0.0576324 348.775 0.391746C348.097 0.655181 347.393 0.854357 346.715 1.11779C326.494 8.97588 306.587 17.5793 287.064 27.0694C260.305 40.0741 234.391 54.6273 209.296 70.6262C202.548 74.9247 196.01 79.5637 189.376 84.0486C185.154 86.5737 180.772 88.8804 176.755 91.7075C173.729 93.8342 171.574 93.6029 168.561 91.489C120.469 57.6536 69.0885 29.768 15.1688 6.52143C9.97451 4.27902 4.68426 2.30647 -0.855473 1.11137C-5.47405 0.115457 -5.66596 0.35962 -4.14988 4.94083C10.16 48.2085 20.1904 92.4721 26.1012 137.661C29.773 165.726 31.6281 193.94 32.1015 222.237C32.1463 225.044 33.125 226.786 35.4407 228.283C42.6436 232.941 49.7954 237.683 56.8512 242.56C81.3706 259.516 104.47 278.258 126.277 298.607C141.585 312.89 156.048 328.003 169.904 343.706C172.508 346.662 174.299 346.771 176.678 343.976C187.828 330.849 200.539 319.271 212.859 307.313C226.683 293.91 240.046 280.019 255.719 268.614C266.926 260.46 277.609 251.587 288.529 243.035C288.868 242.913 289.245 242.849 289.539 242.662C297.113 237.754 304.694 232.851 312.248 227.897C314.327 226.535 315.178 224.408 315.191 222.005C315.261 208.557 315.978 195.148 316.829 181.732C317.539 170.52 318.524 159.327 319.803 148.179C321.959 129.321 324.774 110.546 328.413 91.9067C333.601 65.3511 339.57 38.9947 348.167 13.3065C349.299 9.92682 350.54 6.58569 351.717 3.21885C352.063 2.23579 352.242 1.21417 351.353 0.417442H351.346Z" fill="url(#paint0_linear_1370_66631)"/>
<mask id="mask0_1370_66631" style="mask-type:luminance" maskUnits="userSpaceOnUse" x="-5" y="0" width="357" height="347">
<path d="M351.344 0.4179C350.532 -0.301728 349.642 0.0580902 348.772 0.392203C348.094 0.655639 347.391 0.854815 346.713 1.11825C326.492 8.97634 306.585 17.5798 287.061 27.0699C260.303 40.0746 234.389 54.6278 209.294 70.6267C202.545 74.9252 196.007 79.5642 189.374 84.049C185.152 86.5742 180.77 88.8808 176.753 91.7079C173.727 93.8347 171.571 93.6034 168.558 91.4895C120.466 57.6541 69.0861 29.7685 15.1664 6.52189C9.97207 4.27948 4.68182 2.30693 -0.857914 1.11183C-5.47649 0.115914 -5.6684 0.360078 -4.15233 4.94129C10.1576 48.209 20.188 92.4725 26.0987 137.661C29.7705 165.727 31.6257 193.94 32.099 222.237C32.1438 225.045 33.1225 226.786 35.4382 228.283C42.6412 232.941 49.7929 237.683 56.8487 242.56C81.3681 259.516 104.467 278.259 126.275 298.608C141.582 312.891 156.046 328.003 169.902 343.706C172.505 346.662 174.296 346.771 176.676 343.976C187.826 330.85 200.536 319.271 212.857 307.314C226.681 293.911 240.044 280.019 255.716 268.614C266.924 260.461 277.607 251.588 288.526 243.036C288.865 242.913 289.243 242.849 289.537 242.663C297.111 237.754 304.691 232.852 312.246 227.898C314.325 226.535 315.176 224.409 315.189 222.006C315.259 208.558 315.975 195.148 316.826 181.732C317.536 170.52 318.521 159.327 319.801 148.18C321.956 129.321 324.771 110.547 328.411 91.9071C333.599 65.3515 339.567 38.9951 348.165 13.307C349.297 9.92728 350.538 6.58615 351.715 3.21931C352.06 2.23625 352.24 1.21463 351.35 0.4179H351.344Z" fill="white"/>
</mask>
<g mask="url(#mask0_1370_66631)">
<path d="M358.438 -5.59012C358.438 -5.59012 289.198 3.96421 16.1577 201.489L17.7569 235.633C17.7569 235.633 172.87 344.503 172.87 348.538C172.87 352.573 321.847 227.949 321.847 227.949L358.438 -5.59012Z" fill="url(#paint1_linear_1370_66631)"/>
</g>
</g>
<defs>
<linearGradient id="paint0_linear_1370_66631" x1="-4.99428" y1="173" x2="351.992" y2="173" gradientUnits="userSpaceOnUse">
<stop stop-color="#B4AF9D"/>
<stop offset="0.99" stop-color="#75736A"/>
</linearGradient>
<linearGradient id="paint1_linear_1370_66631" x1="-58.5903" y1="308.778" x2="270.628" y2="169.587" gradientUnits="userSpaceOnUse">
<stop stop-color="#295F70"/>
<stop offset="1" stop-color="#002C38"/>
</linearGradient>
<clipPath id="clip0_1370_66631">
<rect width="346" height="346" fill="white"/>
</clipPath>
</defs>
</svg>
