<svg width="157" height="152" viewBox="0 0 157 152" fill="none" xmlns="http://www.w3.org/2000/svg">
<path d="M156.713 0.183385C156.355 -0.132752 155.964 0.0253183 155.582 0.172096C155.284 0.287825 154.974 0.375325 154.676 0.491054C145.783 3.94316 137.029 7.7227 128.443 11.8918C116.675 17.6048 105.279 23.9981 94.2425 31.0265C91.2746 32.9149 88.3995 34.9529 85.4821 36.9231C83.6254 38.0324 81.6984 39.0457 79.9317 40.2877C78.601 41.222 77.653 41.1204 76.328 40.1917C55.1782 25.3276 32.5825 13.0773 8.86991 2.86491C6.58558 1.8798 4.25905 1.01325 1.82281 0.488232C-0.208329 0.0507208 -0.292724 0.157984 0.374007 2.17054C6.66717 21.1783 11.0783 40.6236 13.6777 60.4753C15.2925 72.8047 16.1083 85.1989 16.3165 97.6299C16.3362 98.8634 16.7666 99.6284 17.785 100.286C20.9527 102.332 24.0978 104.416 27.2008 106.558C37.9838 114.007 48.1424 122.241 57.7326 131.18C64.4646 137.455 70.8253 144.094 76.9187 150.992C78.0637 152.291 78.8514 152.339 79.8979 151.111C84.8013 145.344 90.3912 140.258 95.8095 135.005C101.889 129.117 107.766 123.014 114.658 118.004C119.587 114.422 124.285 110.524 129.087 106.767C129.236 106.713 129.402 106.685 129.531 106.603C132.862 104.447 136.196 102.293 139.518 100.117C140.433 99.5183 140.807 98.584 140.812 97.5283C140.843 91.6205 141.158 85.7296 141.533 79.8359C141.845 74.9104 142.278 69.9933 142.841 65.096C143.789 56.8115 145.027 48.5637 146.627 40.3752C148.909 28.7091 151.534 17.1306 155.315 5.84563C155.812 4.36092 156.358 2.89313 156.876 1.41406C157.028 0.982197 157.107 0.533394 156.716 0.183385H156.713Z" fill="url(#paint0_linear_983_11065)"/>
<mask id="mask0_983_11065" style="mask-type:luminance" maskUnits="userSpaceOnUse" x="0" y="0" width="157" height="153">
<path d="M156.711 0.183568C156.354 -0.132569 155.963 0.0255014 155.581 0.172279C155.282 0.288008 154.973 0.375508 154.675 0.491237C145.782 3.94334 137.027 7.72288 128.442 11.8919C116.674 17.605 105.278 23.9983 94.2413 31.0267C91.2733 32.9151 88.3982 34.953 85.4809 36.9233C83.6242 38.0326 81.6972 39.0459 79.9305 40.2879C78.5998 41.2222 77.6518 41.1205 76.3267 40.1919C55.177 25.3278 32.5813 13.0775 8.86868 2.86509C6.58436 1.87998 4.25783 1.01343 1.82159 0.488416C-0.20955 0.0509039 -0.293945 0.158167 0.372787 2.17072C6.66594 21.1785 11.0771 40.6238 13.6765 60.4755C15.2912 72.8049 16.1071 85.1991 16.3153 97.6301C16.335 98.8636 16.7654 99.6286 17.7838 100.286C20.9514 102.333 24.0966 104.416 27.1996 106.558C37.9826 114.007 48.1411 122.241 57.7314 131.18C64.4634 137.455 70.8241 144.094 76.9175 150.992C78.0625 152.291 78.8502 152.339 79.8967 151.111C84.8001 145.344 90.39 140.258 95.8082 135.005C101.888 129.117 107.764 123.014 114.657 118.004C119.586 114.422 124.284 110.524 129.086 106.767C129.235 106.713 129.401 106.685 129.53 106.603C132.861 104.447 136.195 102.293 139.517 100.117C140.431 99.5185 140.806 98.5842 140.811 97.5285C140.842 91.6207 141.157 85.7298 141.531 79.8361C141.844 74.9106 142.277 69.9935 142.84 65.0962C143.788 56.8117 145.025 48.5639 146.626 40.3754C148.908 28.7093 151.532 17.1308 155.313 5.84582C155.811 4.3611 156.357 2.89332 156.875 1.41425C157.027 0.98238 157.105 0.533578 156.714 0.183568H156.711Z" fill="white"/>
</mask>
<g mask="url(#mask0_983_11065)">
<path d="M159.831 -2.45581C159.831 -2.45581 129.381 1.74147 9.30469 88.5155L10.008 103.515C10.008 103.515 78.2228 151.342 78.2228 153.115C78.2228 154.887 143.74 100.139 143.74 100.139L159.831 -2.45581Z" fill="url(#paint1_linear_983_11065)"/>
</g>
<defs>
<linearGradient id="paint0_linear_983_11065" x1="0.0026627" y1="75.9999" x2="156.997" y2="75.9999" gradientUnits="userSpaceOnUse">
<stop stop-color="#B4AF9D"/>
<stop offset="0.99" stop-color="#75736A"/>
</linearGradient>
<linearGradient id="paint1_linear_983_11065" x1="-23.5677" y1="135.648" x2="121.168" y2="74.3899" gradientUnits="userSpaceOnUse">
<stop stop-color="#295F70"/>
<stop offset="1" stop-color="#002C38"/>
</linearGradient>
</defs>
</svg>
