<svg width="80" height="80" viewBox="0 0 80 80" fill="none" xmlns="http://www.w3.org/2000/svg">
<g clip-path="url(#clip0_2202_59969)">
<path d="M39.941 -0.0492115C40.1001 -0.0488748 40.2591 -0.048538 40.423 -0.0481911C42.7057 -0.04043 44.945 -0.00122742 47.1871 0.468367C47.3394 0.49941 47.4918 0.530453 47.6487 0.562437C55.2084 2.14378 62.0815 5.56824 67.6559 10.9371C67.8104 11.0853 67.8104 11.0853 67.9681 11.2364C69.4506 12.6652 70.8162 14.118 72.0309 15.7809C72.1649 15.9607 72.299 16.1406 72.4331 16.3204C73.3765 17.6003 74.2138 18.9306 74.9996 20.3121C75.0566 20.4108 75.1135 20.5096 75.1722 20.6113C78.5481 26.5094 80.0741 33.1917 80.0484 39.941C80.0481 40.1001 80.0478 40.2591 80.0474 40.423C80.0397 42.7057 80.0005 44.945 79.5309 47.1871C79.4843 47.4156 79.4843 47.4156 79.4368 47.6487C77.8554 55.2084 74.431 62.0815 69.0621 67.6559C68.9633 67.7589 68.8646 67.8619 68.7628 67.9681C67.334 69.4506 65.8813 70.8162 64.2184 72.0309C64.0385 72.1649 63.8587 72.299 63.6788 72.4331C62.3992 73.3765 61.0706 74.2175 59.6871 74.9996C59.5766 75.0625 59.4661 75.1253 59.3523 75.19C55.7374 77.2253 51.8044 78.5923 47.7438 79.4234C47.6314 79.4465 47.5191 79.4695 47.4034 79.4932C45.1103 79.9291 42.8408 80.0541 40.511 80.0489C40.0517 80.0484 39.5925 80.0521 39.1332 80.0561C37.0437 80.063 35.0287 79.8747 32.9684 79.5309C32.7019 79.4868 32.7019 79.4868 32.43 79.4418C25.6695 78.2274 19.2554 75.1045 14.0621 70.6246C13.9457 70.5255 13.8293 70.4264 13.7093 70.3243C11.5992 68.4788 9.61928 66.4865 7.96837 64.2184C7.83454 64.0387 7.70067 63.859 7.56676 63.6794C6.623 62.3997 5.78185 61.0709 4.99962 59.6871C4.93677 59.5766 4.87393 59.4661 4.80919 59.3523C2.77396 55.7374 1.40696 51.8044 0.575788 47.7438C0.552764 47.6314 0.52974 47.5191 0.506018 47.4034C0.0413524 44.9586 -0.0586652 42.5409 -0.0492115 40.0582C-0.0488748 39.8992 -0.048538 39.7401 -0.0481911 39.5762C-0.04043 37.2936 -0.00122742 35.0542 0.468367 32.8121C0.49941 32.6598 0.530453 32.5075 0.562437 32.3505C2.14378 24.7909 5.56824 17.9177 10.9371 12.3434C11.0359 12.2403 11.1347 12.1373 11.2364 12.0312C12.6652 10.5486 14.118 9.18302 15.7809 7.96837C15.9607 7.83429 16.1406 7.70022 16.3204 7.56614C17.6 6.62278 18.9286 5.78171 20.3121 4.99962C20.4226 4.93677 20.5331 4.87393 20.647 4.80919C24.2619 2.77396 28.1949 1.40696 32.2555 0.575788C32.3678 0.552764 32.4801 0.52974 32.5959 0.506018C35.0406 0.0413524 37.4583 -0.0586652 39.941 -0.0492115ZM32.9684 9.53087C32.9684 11.0262 32.9684 12.5215 32.9684 14.0621C37.609 14.0621 42.2496 14.0621 47.0309 14.0621C47.0309 12.5668 47.0309 11.0715 47.0309 9.53087C42.3902 9.53087 37.7496 9.53087 32.9684 9.53087ZM23.5934 18.9059C23.5934 20.4012 23.5934 21.8965 23.5934 23.4371C34.4215 23.4371 45.2496 23.4371 56.4059 23.4371C56.4059 21.9418 56.4059 20.4465 56.4059 18.9059C45.5777 18.9059 34.7496 18.9059 23.5934 18.9059ZM10.6246 28.2809C10.6246 36.0152 10.6246 43.7496 10.6246 51.7184C13.6668 51.7184 16.709 51.7184 19.8434 51.7184C19.8434 50.2231 19.8434 48.7277 19.8434 47.1871C18.2965 47.1871 16.7496 47.1871 15.1559 47.1871C15.1559 40.9481 15.1559 34.709 15.1559 28.2809C13.6606 28.2809 12.1652 28.2809 10.6246 28.2809ZM22.3287 30.9872C21.0257 32.8188 20.8867 34.7141 20.8846 36.8862C20.8836 37.1318 20.8826 37.3774 20.8815 37.6229C20.8796 38.1366 20.879 38.6502 20.8792 39.1639C20.8792 39.8166 20.875 40.4693 20.8696 41.1221C20.8661 41.6292 20.8655 42.1364 20.8656 42.6435C20.8653 42.8839 20.8639 43.1242 20.8615 43.3646C20.8404 45.6515 21.2274 47.8045 22.8066 49.5596C24.1983 50.8908 25.9382 51.681 27.8609 51.7672C29.9437 51.709 31.5868 50.8442 33.0782 49.4454C34.7608 47.6483 34.9168 45.5957 34.9111 43.2528C34.9118 42.9933 34.9127 42.7338 34.9136 42.4742C34.915 41.9324 34.9146 41.3906 34.9131 40.8487C34.9113 40.1591 34.9144 39.4696 34.919 38.7801C34.9219 38.2447 34.9218 37.7093 34.9209 37.1738C34.9209 36.9198 34.9218 36.6658 34.9238 36.4118C34.9398 33.9858 34.4935 32.097 32.8017 30.2773C31.4621 28.9952 29.7672 28.3117 27.9195 28.232C25.6891 28.3017 23.7562 29.2856 22.3287 30.9872ZM39.8434 30.7809C38.2105 32.7452 38.1006 34.9813 38.0984 37.4288C38.0979 37.6301 38.0973 37.8314 38.0968 38.0388C38.0959 38.4632 38.0956 38.8876 38.0957 39.3121C38.0957 39.8501 38.0935 40.3881 38.0909 40.9261C38.0887 41.4465 38.0888 41.967 38.0886 42.4874C38.0875 42.6776 38.0864 42.8678 38.0852 43.0637C38.0918 45.5754 38.4235 47.8055 40.2145 49.6969C41.6891 51.0464 43.5502 51.7821 45.5489 51.7519C47.4055 51.5914 49.2654 50.7445 50.4684 49.316C51.8678 47.505 52.2135 45.7861 52.2024 43.5458C52.2022 43.3771 52.2019 43.2085 52.2017 43.0348C52.2008 42.4983 52.1989 41.9619 52.1969 41.4254C52.1961 41.0608 52.1954 40.6962 52.1947 40.3316C52.1932 39.4397 52.1901 38.5478 52.1871 37.6559C49.9184 37.6559 47.6496 37.6559 45.3121 37.6559C45.3121 39.2027 45.3121 40.7496 45.3121 42.3434C46.0856 42.3434 46.859 42.3434 47.6559 42.3434C47.6422 42.7895 47.6255 43.2353 47.607 43.6813C47.6035 43.8062 47.6 43.9312 47.5964 44.06C47.5514 45.0602 47.3839 45.843 46.7086 46.6207C45.9532 47.0386 45.1647 47.1675 44.3246 46.9271C43.631 46.6123 43.3131 46.318 42.9684 45.6246C42.9078 45.1099 42.9078 45.1099 42.9052 44.5181C42.9042 44.4097 42.9031 44.3014 42.902 44.1898C42.8991 43.8333 42.8997 43.4769 42.9006 43.1203C42.8999 42.8715 42.8991 42.6226 42.8981 42.3737C42.8967 41.8527 42.8971 41.3317 42.8987 40.8107C42.9005 40.1443 42.8973 39.478 42.8927 38.8116C42.8899 38.2978 42.8899 37.784 42.8908 37.2702C42.8908 37.0246 42.8899 36.7789 42.888 36.5333C42.8856 36.1892 42.8873 35.8454 42.89 35.5014C42.89 35.3059 42.89 35.1105 42.8901 34.9092C42.9836 34.2705 43.1895 33.9355 43.5934 33.4371C44.3766 32.9515 44.9829 32.9039 45.8907 33.0373C46.4244 33.1671 46.6737 33.3295 47.0309 33.7496C47.2371 34.2137 47.4434 34.6777 47.6559 35.1559C49.1512 35.1559 50.6465 35.1559 52.1871 35.1559C51.8164 32.7463 51.2277 31.0478 49.2672 29.5797C46.0839 27.4399 42.4322 28.0921 39.8434 30.7809ZM56.86 30.9872C55.557 32.8188 55.418 34.7141 55.4159 36.8862C55.4149 37.1318 55.4138 37.3774 55.4127 37.6229C55.4109 38.1366 55.4103 38.6502 55.4105 39.1639C55.4105 39.8166 55.4062 40.4693 55.4008 41.1221C55.3973 41.6292 55.3967 42.1364 55.3969 42.6435C55.3965 42.8839 55.3952 43.1242 55.3927 43.3646C55.3717 45.6515 55.7587 47.8045 57.3379 49.5596C58.7295 50.8908 60.4694 51.681 62.3922 51.7672C64.475 51.709 66.1181 50.8442 67.6095 49.4454C69.2921 47.6483 69.4481 45.5957 69.4424 43.2528C69.4431 42.9933 69.4439 42.7338 69.4448 42.4742C69.4462 41.9324 69.4459 41.3906 69.4443 40.8487C69.4425 40.1591 69.4457 39.4696 69.4502 38.7801C69.4531 38.2447 69.4531 37.7093 69.4522 37.1738C69.4521 36.9198 69.4531 36.6658 69.455 36.4118C69.4711 33.9858 69.0247 32.097 67.333 30.2773C65.9933 28.9952 64.2985 28.3117 62.4508 28.232C60.2203 28.3017 58.2874 29.2856 56.86 30.9872ZM23.5934 56.5621C23.5934 58.0574 23.5934 59.5527 23.5934 61.0934C34.4215 61.0934 45.2496 61.0934 56.4059 61.0934C56.4059 59.5981 56.4059 58.1027 56.4059 56.5621C45.5777 56.5621 34.7496 56.5621 23.5934 56.5621ZM32.9684 65.9371C32.9684 67.4324 32.9684 68.9277 32.9684 70.4684C37.609 70.4684 42.2496 70.4684 47.0309 70.4684C47.0309 68.9731 47.0309 67.4777 47.0309 65.9371C42.3902 65.9371 37.7496 65.9371 32.9684 65.9371Z" fill="#19738C"/>
<path d="M63.8766 33.1446C64.5254 33.7007 64.8056 34.2018 64.9022 35.045C64.9262 35.6949 64.9304 36.342 64.9264 36.9923C64.9268 37.2333 64.9274 37.4743 64.9282 37.7154C64.9291 38.2192 64.9278 38.7229 64.9248 39.2268C64.9213 39.8704 64.9233 40.5138 64.9271 41.1574C64.9293 41.6548 64.9286 42.1521 64.927 42.6494C64.9266 42.8866 64.9271 43.1238 64.9285 43.361C64.9396 45.6552 64.9396 45.6552 64.2183 46.5626C63.6257 47.0905 62.9583 47.238 62.1773 47.2071C61.3691 47.0851 60.8138 46.7381 60.3121 46.0938C60.0068 45.468 59.9594 44.9562 59.9567 44.2634C59.9559 44.1612 59.9551 44.0589 59.9543 43.9536C59.9521 43.6174 59.9522 43.2812 59.9526 42.945C59.952 42.7102 59.9513 42.4753 59.9506 42.2405C59.9494 41.7488 59.9494 41.2573 59.9503 40.7656C59.9512 40.1371 59.9485 39.5086 59.9449 38.8801C59.9426 38.3952 59.9425 37.9104 59.943 37.4255C59.9429 37.1939 59.9421 36.9622 59.9405 36.7305C59.9385 36.4059 59.9396 36.0815 59.9414 35.7569C59.9413 35.5726 59.9412 35.3883 59.9411 35.1984C60.0182 34.5247 60.2448 34.0011 60.6972 33.4931C61.7094 32.6904 62.6861 32.6684 63.8766 33.1446Z" fill="#19738C"/>
<path d="M29.3453 33.1446C29.9941 33.7007 30.2744 34.2018 30.3709 35.045C30.3949 35.6949 30.3991 36.342 30.3951 36.9923C30.3955 37.2333 30.3961 37.4743 30.3969 37.7154C30.3978 38.2192 30.3965 38.7229 30.3936 39.2268C30.39 39.8704 30.3921 40.5138 30.3958 41.1574C30.3981 41.6548 30.3973 42.1521 30.3957 42.6494C30.3953 42.8866 30.3958 43.1238 30.3973 43.361C30.4083 45.6552 30.4083 45.6552 29.6871 46.5626C29.0945 47.0905 28.4271 47.238 27.6461 47.2071C26.8378 47.0851 26.2826 46.7381 25.7808 46.0938C25.4755 45.468 25.4281 44.9562 25.4254 44.2634C25.4246 44.1612 25.4238 44.0589 25.423 43.9536C25.4208 43.6174 25.421 43.2812 25.4213 42.945C25.4207 42.7102 25.4201 42.4753 25.4193 42.2405C25.4182 41.7488 25.4182 41.2573 25.419 40.7656C25.4199 40.1371 25.4173 39.5086 25.4137 38.8801C25.4113 38.3952 25.4112 37.9104 25.4117 37.4255C25.4116 37.1939 25.4108 36.9622 25.4092 36.7305C25.4073 36.4059 25.4084 36.0815 25.4102 35.7569C25.4101 35.5726 25.41 35.3883 25.4099 35.1984C25.487 34.5247 25.7135 34.0011 26.166 33.4931C27.1781 32.6904 28.1549 32.6684 29.3453 33.1446Z" fill="#19738C"/>
</g>
<defs>
<clipPath id="clip0_2202_59969">
<rect width="80" height="80" fill="white"/>
</clipPath>
</defs>
</svg>
