<svg width="46" height="56" viewBox="0 0 46 56" fill="none" xmlns="http://www.w3.org/2000/svg">
<path d="M45.3069 0.0530908C45.2036 -0.0384785 45.0906 0.00730625 44.9795 0.0501685C44.8928 0.0832893 44.8032 0.108617 44.7175 0.141738C42.1467 1.13634 39.6159 2.22543 37.1338 3.42654C33.7311 5.07284 30.4376 6.91494 27.2463 8.93921C26.388 9.48376 25.5571 10.0702 24.7135 10.6381C24.1767 10.9576 23.6195 11.2499 23.1091 11.6074C22.7243 11.8762 22.4496 11.847 22.0677 11.5791C15.953 7.29681 9.42141 3.76652 2.56638 0.824611C1.90591 0.541136 1.23376 0.290781 0.529451 0.139789C-0.0569827 0.0131509 -0.0823121 0.044323 0.110568 0.624912C1.93026 6.10154 3.20542 11.7038 3.95648 17.424C4.42309 20.9767 4.65884 24.5479 4.71923 28.1288C4.72508 28.4834 4.84977 28.7046 5.14396 28.8945C6.05965 29.4839 6.9695 30.0839 7.86571 30.7015C10.983 32.8476 13.92 35.2196 16.6924 37.7962C18.6387 39.6042 20.4769 41.5165 22.2392 43.5047C22.5704 43.8788 22.7983 43.8924 23.1003 43.5388C24.5177 41.8769 26.1338 40.4118 27.7002 38.8989C29.4576 37.202 31.1565 35.4437 33.1486 34.001C34.5728 32.9693 35.9317 31.8452 37.3199 30.7629C37.3627 30.7473 37.4114 30.7395 37.4484 30.7152C38.4119 30.0937 39.3753 29.4731 40.3358 28.8468C40.5998 28.6743 40.7079 28.4055 40.7099 28.1006C40.7186 26.3988 40.8102 24.7008 40.9183 23.0029C41.0089 21.5836 41.1346 20.1672 41.2963 18.7556C41.571 16.368 41.9285 13.9921 42.3912 11.6337C43.0507 8.2729 43.8096 4.93647 44.9026 1.68478C45.0468 1.25713 45.2046 0.833378 45.3536 0.407678C45.3974 0.282988 45.4198 0.153427 45.3069 0.0530908Z" fill="url(#paint0_linear_399_67929)"/>
<mask id="mask0_399_67929" style="mask-type:luminance" maskUnits="userSpaceOnUse" x="0" y="0" width="46" height="44">
<path d="M45.3059 0.0530908C45.2026 -0.0384785 45.0896 0.00730625 44.9786 0.0501685C44.8919 0.0832893 44.8022 0.108617 44.7165 0.141738C42.1458 1.13634 39.6149 2.22543 37.1328 3.42654C33.7301 5.07284 30.4366 6.91494 27.2453 8.93921C26.3871 9.48376 25.5561 10.0702 24.7125 10.6381C24.1758 10.9576 23.6186 11.2499 23.1081 11.6074C22.7233 11.8762 22.4486 11.847 22.0667 11.5791C15.9521 7.29681 9.42044 3.76652 2.5654 0.824611C1.90493 0.541136 1.23278 0.290781 0.528474 0.139789C-0.0579592 0.0131509 -0.0832887 0.044323 0.109591 0.624912C1.92929 6.10154 3.20444 11.7038 3.9555 17.424C4.42212 20.9767 4.65786 24.5479 4.71826 28.1288C4.7241 28.4834 4.84879 28.7046 5.14298 28.8945C6.05868 29.4839 6.96853 30.0839 7.86474 30.7015C10.982 32.8476 13.919 35.2196 16.6914 37.7962C18.6378 39.6042 20.476 41.5165 22.2382 43.5047C22.5694 43.8788 22.7974 43.8924 23.0993 43.5388C24.5167 41.8769 26.1328 40.4118 27.6992 38.8989C29.4566 37.202 31.1555 35.4437 33.1476 34.001C34.5718 32.9693 35.9307 31.8452 37.3189 30.7629C37.3617 30.7473 37.4105 30.7395 37.4475 30.7152C38.4109 30.0937 39.3743 29.4731 40.3348 28.8468C40.5988 28.6743 40.707 28.4055 40.7089 28.1006C40.7177 26.3988 40.8092 24.7008 40.9174 23.0029C41.008 21.5836 41.1336 20.1672 41.2953 18.7556C41.57 16.368 41.9276 13.9921 42.3903 11.6337C43.0498 8.2729 43.8086 4.93647 44.9016 1.68478C45.0458 1.25713 45.2036 0.833378 45.3526 0.407678C45.3965 0.282988 45.4189 0.153427 45.3059 0.0530908Z" fill="white"/>
</mask>
<g mask="url(#mask0_399_67929)">
<path d="M46.2073 -0.707764C46.2073 -0.707764 37.9144 0.874239 3.2009 25.8756L2.89502 29.8248C2.89502 29.8248 22.6146 43.605 22.6146 44.1154C22.6146 44.6259 41.5548 28.8526 41.5548 28.8526L46.2073 -0.70679V-0.707764Z" fill="url(#paint1_linear_399_67929)"/>
<path fill-rule="evenodd" clip-rule="evenodd" d="M58.1365 62.5247C42.4674 57.541 26.6269 52.0839 11.6826 46.5907C-0.301273 42.1925 -2.08298 28.6928 8.35008 21.3361C28.2567 7.28604 50.1875 -7.2803 70.9913 -19.7172C89.5536 -30.8273 104.491 -17.1688 96.3765 6.37911C94.7847 11.0024 92.5111 15.9218 89.7153 20.9922L89.6851 21.037C81.8199 35.2731 69.9499 50.3246 58.1355 62.5247H58.1365Z" fill="url(#paint2_linear_399_67929)"/>
<path fill-rule="evenodd" clip-rule="evenodd" d="M19.7232 36.8698C14.9002 42.1662 16.4169 48.73 23.0411 51.0738C19.1416 49.6905 15.2782 48.3033 11.4849 46.9064C-0.499027 42.5082 -2.28074 29.0085 8.15232 21.6518C9.7733 20.5315 11.4225 19.3645 13.0386 18.2033C23.7785 10.7229 33.5083 19.0898 25.3333 30.4386C23.6266 32.8086 21.4854 34.906 19.7242 36.8708L19.7232 36.8698Z" fill="url(#paint3_linear_399_67929)"/>
<path fill-rule="evenodd" clip-rule="evenodd" d="M44.6867 25.2502C44.3029 9.21684 26.3865 9.35419 12.1504 18.78C13.3768 17.9588 14.5984 17.0967 15.8249 16.2745C19.7175 13.7807 25.1055 11.132 30.5139 10.0049C46.6389 6.68115 53.0595 19.2378 49.3665 35.5625C47.2205 45.001 42.2855 54.644 36.6471 62.7703C34.3433 62.0017 32.0765 61.2292 29.8096 60.4557C36.3052 52.2573 44.939 37.014 44.6858 25.2512L44.6867 25.2502Z" fill="url(#paint4_linear_399_67929)"/>
</g>
<path d="M4.51612 44.6483H10.2314L14.7485 55.8402H10.9912L10.059 53.4156H4.67588L3.74363 55.8402H0L4.51709 44.6483H4.51612ZM9.05952 50.8302L7.76683 47.4996H6.96706L5.67438 50.8302H9.05854H9.05952Z" fill="#00555C"/>
<path d="M17.2939 44.6483L19.0659 52.3226H19.2919L20.944 44.6483H25.9268L27.5789 52.3226H27.8059L29.5779 44.6483H33.3215L30.2042 55.8402H25.3549L23.5966 48.1659H23.2771L21.5188 55.8402H16.6695L13.5522 44.6483H17.2959H17.2939Z" fill="#00555C"/>
<path d="M39.4654 44.4886C43.1691 44.4886 45.2079 45.8738 45.2079 48.4193H41.6367C41.6367 47.4997 40.6772 47.0467 39.3056 47.0467C37.934 47.0467 37.2667 47.4734 37.2667 48.0997C37.2667 48.7797 38.199 48.9122 39.3056 48.992C41.8774 49.1917 45.394 49.1255 45.394 52.083C45.394 54.7073 43.3551 56 39.5852 56C35.6282 56 33.5894 54.5749 33.5894 52.0168H37.1732C37.1732 52.9626 38.0655 53.4419 39.8112 53.4419C41.1964 53.4419 41.8501 53.1351 41.8501 52.5223C41.8501 51.7099 40.7172 51.5901 39.252 51.4966C36.9209 51.3504 33.7365 51.2706 33.7365 48.1387C33.7365 45.8202 35.8279 44.4886 39.4654 44.4886Z" fill="#00555C"/>
<defs>
<linearGradient id="paint0_linear_399_67929" x1="26.6413" y1="16.0164" x2="-1.86694" y2="-14.522" gradientUnits="userSpaceOnUse">
<stop offset="0.25" stop-color="#19738C"/>
<stop offset="0.69" stop-color="#75C8B7"/>
<stop offset="0.99" stop-color="#CDCCAE"/>
</linearGradient>
<linearGradient id="paint1_linear_399_67929" x1="59.1049" y1="15.0314" x2="-15.299" y2="35.1553" gradientUnits="userSpaceOnUse">
<stop stop-color="#753EB7"/>
<stop offset="0.34" stop-color="#2598B9"/>
<stop offset="0.69" stop-color="#5CE2C4"/>
<stop offset="0.99" stop-color="#FFFCD1"/>
</linearGradient>
<linearGradient id="paint2_linear_399_67929" x1="47.0274" y1="-8.77366" x2="57.0893" y2="64.0425" gradientUnits="userSpaceOnUse">
<stop offset="0.3" stop-color="#19738C"/>
<stop offset="0.69" stop-color="#75C8B7"/>
<stop offset="0.99" stop-color="#CDCCAE"/>
</linearGradient>
<linearGradient id="paint3_linear_399_67929" x1="-2.79508" y1="58.5143" x2="44.1595" y2="0.526559" gradientUnits="userSpaceOnUse">
<stop stop-color="#3041B8"/>
<stop offset="0.34" stop-color="#19738C"/>
<stop offset="0.69" stop-color="#75C8B7"/>
<stop offset="0.99" stop-color="#CDCCAE"/>
</linearGradient>
<linearGradient id="paint4_linear_399_67929" x1="15.3212" y1="46.3238" x2="63.5997" y2="16.2268" gradientUnits="userSpaceOnUse">
<stop stop-color="#3041B8"/>
<stop offset="0.34" stop-color="#19738C"/>
<stop offset="0.69" stop-color="#75C8B7"/>
<stop offset="0.99" stop-color="#CDCCAE"/>
</linearGradient>
</defs>
</svg>
